<?xml version="1.0" encoding="utf-8"?>
<!-- Generator: Adobe Illustrator 18.0.0, SVG Export Plug-In . SVG Version: 6.00 Build 0)  -->
<!DOCTYPE svg PUBLIC "-//W3C//DTD SVG 1.1//EN" "http://www.w3.org/Graphics/SVG/1.1/DTD/svg11.dtd">
<svg version="1.1" id="Layer_1" xmlns="http://www.w3.org/2000/svg" xmlns:xlink="http://www.w3.org/1999/xlink" x="0px" y="0px"
	 viewBox="675.8 0 366.2 379" style="enable-background:new 675.8 0 366.2 379;" xml:space="preserve">
<style type="text/css">
	.st0{fill:#231F20;}
</style>
<g>
	<g>
		<g>
			<path class="st0" d="M846.9,177.3c-8,0-14.2-8-14.2-18c0-10,6.2-18,14.2-18s14.2,8,14.2,18C861.1,169.3,854.6,177.3,846.9,177.3z
				 M846.9,147.4c-4.5,0-8.6,5.4-8.6,12.2c0,6.8,3.9,12.2,8.6,12.2s8.6-5.4,8.6-12.2C855.5,152.8,851.4,147.4,846.9,147.4z"/>
		</g>
		<g>
			<path class="st0" d="M908.3,177.3c-8,0-14.2-8-14.2-18c0-10,6.2-18,14.2-18s14.2,8,14.2,18C922.5,169.3,916.3,177.3,908.3,177.3z
				 M908.3,147.4c-4.5,0-8.6,5.4-8.6,12.2c0,6.8,3.9,12.2,8.6,12.2s8.6-5.4,8.6-12.2C916.9,152.8,913.2,147.4,908.3,147.4z"/>
		</g>
	</g>
	<g>
		<path class="st0" d="M877.7,268.9c-62.3,0-113-50.6-113-113s50.6-112.6,113-112.6S990.6,94,990.6,156.2S939.9,268.9,877.7,268.9z
			 M877.7,49c-59.2,0-107.2,48-107.2,107.2s48,106.9,107.2,106.9c59.2,0,107.2-48,107.2-107.2S936.9,49,877.7,49z"/>
	</g>
	<g>
		<path class="st0" d="M1014.8,333.8l-0.3-0.6c-13.4-31.7-37.8-57.7-68.1-73.4c-1.9,1.3-3.8,2.5-5.7,3.7c30.4,15,55,40.5,68.4,72"/>
		<path class="st0" d="M746.2,335.7c13.3-31.5,37.4-57,67.6-71.9c-1.9-1.1-3.8-2.3-5.6-3.6c-29.9,15.8-54,41.6-67.4,73.3"/>
	</g>
	<g>
		<path class="st0" d="M924.3,203.2H831c-21,0-37.9-17.1-37.9-37.9V150c0-21,17.1-37.9,37.9-37.9h93.3c21,0,37.9,17.1,37.9,37.9V165
			C962.1,186.1,945.3,203.2,924.3,203.2z M831,117.8c-18,0-32.5,14.5-32.5,32.2V165c0,17.7,14.5,32.2,32.2,32.2H924
			c17.7,0,32.2-14.5,32.2-32.2V150c0-17.7-14.5-32.2-32.2-32.2C924,117.8,831,117.8,831,117.8z"/>
	</g>
	<g>
		<path class="st0" d="M769,295l-60-52.9c-5.7-5.1-6.2-13.6-1.2-19.3c2.6-2.9,5.7-4.2,9.4-4.5c3.7-0.3,7.1,0.9,10,3.5l60.9,53.8
			l-3.7,4.2L723.3,226c-1.7-1.4-3.7-2-6-2c-2.3,0-3.9,1.2-5.4,2.9c-2.9,3.5-2.6,8.6,0.9,11.3l60,52.9L769,295z"/>
	</g>
</g>
</svg>
