<?xml version="1.0" encoding="utf-8"?>
<!-- Generator: Adobe Illustrator 18.0.0, SVG Export Plug-In . SVG Version: 6.00 Build 0)  -->
<!DOCTYPE svg PUBLIC "-//W3C//DTD SVG 1.1//EN" "http://www.w3.org/Graphics/SVG/1.1/DTD/svg11.dtd">
<svg version="1.1" id="Layer_1" xmlns="http://www.w3.org/2000/svg" xmlns:xlink="http://www.w3.org/1999/xlink" x="0px" y="0px"
	 viewBox="0 0 16 16" style="enable-background:new 0 0 16 16;" xml:space="preserve">
<style type="text/css">
	.st0{fill:#4388C7;}
	.st1{fill:#87C880;}
	.st2{fill:#F05A24;}
	.st3{fill:#FC1159;}
</style>
<g>
	<g>
		<path class="st0" d="M3.7,12.6c0,0-0.1,0-0.1,0C2,11.3,1.1,9.4,1.1,7.3c0-1.4,0.4-2.8,1.3-4c0.1-0.1,0.2-0.1,0.3,0
			c0.1,0.1,0.1,0.2,0,0.3C1.9,4.6,1.5,6,1.5,7.3c0,1.9,0.8,3.7,2.3,5c0.1,0.1,0.1,0.2,0,0.3C3.8,12.6,3.7,12.6,3.7,12.6z"/>
	</g>
	<g>
		<path class="st1" d="M12.3,12.6c-0.1,0-0.1,0-0.1-0.1c-0.1-0.1-0.1-0.2,0-0.3c1.5-1.2,2.3-3.1,2.3-5c0-1.4-0.4-2.7-1.2-3.8
			c-0.1-0.1,0-0.2,0-0.3c0.1-0.1,0.2,0,0.3,0c0.8,1.2,1.3,2.5,1.3,4c0,2-0.9,3.9-2.4,5.3C12.4,12.6,12.4,12.6,12.3,12.6z"/>
	</g>
	<g>
		<path class="st2" d="M3.7,2.4c-0.1,0-0.1,0-0.1-0.1c-0.1-0.1-0.1-0.2,0-0.3C4.8,1,6.4,0.4,8,0.4c1.6,0,3.2,0.6,4.5,1.6
			c0.1,0.1,0.1,0.2,0,0.3c-0.1,0.1-0.2,0.1-0.3,0C11,1.3,9.5,0.8,8,0.8c-1.5,0-3,0.5-4.2,1.5C3.7,2.4,3.7,2.4,3.7,2.4z"/>
	</g>
	<g>
		<g>
			<path class="st3" d="M10.8,13.4H5.3c-0.1,0-0.2-0.1-0.2-0.2c0-0.1,0.1-0.2,0.2-0.2h5.5c0.1,0,0.2,0.1,0.2,0.2
				C11,13.3,10.9,13.4,10.8,13.4z"/>
		</g>
		<g>
			<path class="st3" d="M10.4,14.4H5.6c-0.1,0-0.2-0.1-0.2-0.2c0-0.1,0.1-0.2,0.2-0.2h4.8c0.1,0,0.2,0.1,0.2,0.2
				C10.6,14.3,10.5,14.4,10.4,14.4z"/>
		</g>
	</g>
	<g>
		<g>
			<path class="st3" d="M12.8,8.5c0,0-0.1,0-0.1,0L8,4.3L3.6,8.4c-0.1,0.1-0.2,0.1-0.3,0c-0.1-0.1-0.1-0.2,0-0.3l4.5-4.2
				c0.1-0.1,0.3-0.1,0.4,0l4.7,4.3c0.1,0.1,0.1,0.2,0,0.3C12.9,8.5,12.8,8.5,12.8,8.5z"/>
		</g>
		<g>
			<path class="st3" d="M10.4,12.2H5.6c-0.5,0-0.9-0.4-0.9-0.9V8.3c0-0.1,0.1-0.2,0.2-0.2c0.1,0,0.2,0.1,0.2,0.2v3.1
				c0,0.3,0.2,0.5,0.5,0.5h4.7c0.3,0,0.5-0.2,0.5-0.5V8.3c0-0.1,0.1-0.2,0.2-0.2c0.1,0,0.2,0.1,0.2,0.2v3.1
				C11.2,11.9,10.8,12.2,10.4,12.2z"/>
		</g>
	</g>
	<path class="st3" d="M10,15c-0.5,0.4-1.2,0.6-1.9,0.6c-0.7,0-1.5-0.2-2.1-0.6"/>
</g>
</svg>
