<?xml version="1.0" encoding="utf-8"?>
<!-- Generator: Adobe Illustrator 16.0.0, SVG Export Plug-In . SVG Version: 6.00 Build 0)  -->
<!DOCTYPE svg PUBLIC "-//W3C//DTD SVG 1.1//EN" "http://www.w3.org/Graphics/SVG/1.1/DTD/svg11.dtd">
<svg version="1.1" id="Layer_1" xmlns="http://www.w3.org/2000/svg" xmlns:xlink="http://www.w3.org/1999/xlink" x="0px" y="0px"
	 width="481px" height="169px" viewBox="74.5 312.5 481 169" enable-background="new 74.5 312.5 481 169" xml:space="preserve">
<g>
	<path d="M124.2,426.4h13.5V447.8c-6,6.7-14.3,10-24.8,10c-8.9,0-16.3-2.899-22.3-8.8s-9-13.3-9-22.2c0-8.899,3.1-16.399,9.2-22.399
		c6.1-6,13.5-9,22.2-9s16.2,2.8,22.5,8.5l-7,10.1c-2.7-2.4-5.2-4-7.5-4.9c-2.3-0.899-4.7-1.3-7.4-1.3c-5.1,0-9.4,1.7-12.9,5.2
		s-5.3,8.1-5.3,13.8s1.7,10.2,5,13.7c3.4,3.4,7.4,5.1,12,5.1c4.7,0,8.5-0.899,11.6-2.699v-16.5H124.2z"/>
	<path d="M149.8,396.8h13.5v60.3h-13.5V396.8z"/>
	<path d="M200.3,435.2l15.3-38.4h14.6L206,457.1h-11.4l-24.2-60.3H185L200.3,435.2z"/>
	<path d="M280.8,396.8v12h-30v12.4h27v11.5h-27v12.5h31V457.1h-44.4v-60.3H280.8z"/>
	<path d="M336.7,457.1l-5.601-13h-25.3l-5.6,13h-14.3l26-60.3h13l26,60.3H336.7z M318.5,414.8l-7.6,17.5H326L318.5,414.8z"/>
	<path d="M373.6,431.5l10.7-34.7H398.4l10.6,34.7l12-34.7h14.6l-21,60.3h-10L391.4,415.2L378.3,457.1h-10l-21-60.3H361.9
		L373.6,431.5z"/>
	<path d="M482.4,457.1l-5.601-13h-25.3l-5.6,13H431.6l26-60.3h13l26,60.3H482.4z M464.2,414.8l-7.601,17.5H471.7L464.2,414.8z"/>
	<path d="M525.5,457.1H512v-23.8l-20.9-36.5H505.7l13,22.4l13-22.4h14.6L525.4,433.3v23.8H525.5z"/>
</g>
<g>
	<g>
		<path d="M124.2,359.3l-0.2-8.9c0-0.6-0.5-1.1-1.1-1.1h-1.5c-0.8,0-1.5-0.3-1.9-1c-0.5-0.8-0.4-1.9,0.3-2.6l13.3-13
			c1.6-1.7,4.2-1.7,5.9-0.2l11.3,9.9l2.6,2.4c0.6,0.6,0.8,1.5,0.5,2.3c-0.3,0.8-1.1,1.3-1.9,1.4h-1.7c-0.6,0-1.1,0.5-1.1,1.1
			l0.3,13.6c0,0.9-0.8,1.6-1.7,1.5c-0.7-0.1-1.2-0.8-1.3-1.5l-0.4-14.6c0-1.6,1.2-3,2.9-3h0.1c0.3,0,0.4-0.3,0.2-0.5l-0.6-0.5
			l-11.3-9.9c-0.5-0.5-1.3-0.5-1.8,0l-11.3,11c-0.2,0.2,0,0.5,0.2,0.5h-0.1c1.6,0,3,1.2,3,2.9l0.3,10c0,0.8-0.6,1.5-1.5,1.5l0,0
			C124.9,360.7,124.2,360.1,124.2,359.3z"/>
		<path d="M127.2,370.8l18.7-0.5c0.8,0,1.5-0.7,1.4-1.5l0,0c0-0.8-0.7-1.5-1.5-1.4l-18.6,0.5c-0.8,0-0.8,0.7-0.8,1.5
			C126.5,369.3,126.4,370.8,127.2,370.8z"/>
		<path d="M127,362.4l0.1,3c-0.6,0-1.1,0.5-1.1,1.2c0,0.7,0.5,1.2,1.2,1.2l0.1,3c-2.3,0.1-4.2-1.8-4.3-4.1
			C122.9,364.4,124.7,362.5,127,362.4z"/>
		<path d="M146,375.7l-18.7,0.5c-0.8,0-1.5-0.6-1.5-1.4l0,0c0-0.8,0.6-1.5,1.4-1.5l18.6-0.5c0.8,0,0.8,0.6,0.8,1.5
			C146.7,374.2,146.8,375.7,146,375.7z"/>
		<path d="M145.7,367.3l0.1,3c0.6,0,1.2,0.5,1.2,1.1s-0.5,1.2-1.1,1.2l0.1,3c2.3-0.1,4.1-2,4-4.3C149.9,369,148,367.2,145.7,367.3z"
			/>
		<path d="M147.2,378.6c-2.6,2.1-6.4,3.4-9.9,3.5c-3.6,0.1-7.4-1-10.1-3L147.2,378.6z"/>
		<g>
			<path d="M148.9,363.3c0,0.8-0.6,1.5-1.4,1.5l-20.4,0.5c-0.8,0-1.5-0.7-1.5-1.5c0-0.8,0.7-1.4,1.5-1.4l20.3-0.5
				C148.2,361.9,148.9,362.5,148.9,363.3L148.9,363.3z"/>
		</g>
		<path d="M114.4,343.6c-0.1-4.7,1.3-9.1,3.7-12.7c0.4-0.7,0.4-1.5-0.1-2.1l0,0c-0.7-0.8-2-0.7-2.6,0.2c-2.9,4.2-4.5,9.3-4.3,14.7
			c0.2,6.9,3.1,13.1,7.8,17.5c0.7,0.7,1.8,0.6,2.5-0.1l0,0c0.6-0.7,0.5-1.7-0.1-2.3C117.1,355,114.5,349.6,114.4,343.6z"/>
		<path d="M157.6,342.5c0.2,5.9-2.1,11.4-5.9,15.4c-0.6,0.6-0.6,1.7,0,2.3l0,0c0.7,0.7,1.8,0.7,2.5,0c4.4-4.6,7-10.9,6.8-17.8
			c-0.1-5.4-2-10.4-5-14.4c-0.7-0.9-1.9-0.9-2.6-0.1l0,0c-0.5,0.6-0.5,1.5,0,2.1C155.9,333.6,157.5,337.9,157.6,342.5z"/>
		<path d="M120.2,326c0.6,0.7,1.6,0.7,2.3,0.2c3.5-2.8,8-4.6,12.9-4.7s9.5,1.4,13.2,4.1c0.7,0.5,1.7,0.4,2.3-0.3l0,0
			c0.6-0.8,0.5-1.9-0.3-2.5c-4.3-3.1-9.6-4.9-15.3-4.7c-5.6,0.1-10.8,2.2-14.9,5.4C119.7,324.1,119.6,325.3,120.2,326L120.2,326z"/>
	</g>
	<path d="M178.4,329.6c0,6.1-9.2,6.1-9.2,0S178.4,323.5,178.4,329.6z M169.8,338.3V370h7.8v-31.7H169.8z"/>
	<path d="M214.9,325.3V370h-7.3l-0.5-4.4c-2.4,3.8-6.3,5.1-10.2,5.1c-9.3,0-16.3-6.1-16.3-16.5c0-10.9,6.9-16.5,16.1-16.5
		c3.3,0,8.5,1.8,10.4,5.1v-17.5H214.9L214.9,325.3z M188.5,354.2c0,5.5,4,9.3,9,9.3c4.9,0,9.2-3.6,9.2-9.3c0-5.5-4.2-9.2-9.2-9.2
		S188.5,348.5,188.5,354.2z"/>
	<path d="M226.5,357c0.5,3.9,3.9,6.7,9.4,6.7c2.9,0,6.7-1.1,8.5-2.9l5,4.9c-3.3,3.5-8.8,5.1-13.6,5.1c-10.9,0-17.4-6.7-17.4-16.8
		c0-9.6,6.5-16.5,16.8-16.5c10.6,0,17.2,6.5,15.9,19.5H226.5L226.5,357z M243.7,350.6c-0.5-4.1-3.7-6.1-8.2-6.1
		c-4.2,0-7.7,2-8.8,6.1H243.7z"/>
	<path d="M279.7,338.5h7.5V370h-7.4l-0.4-4.6c-1.8,3.7-6.7,5.5-10.2,5.6c-9.4,0.1-16.3-5.7-16.3-16.8c0-10.9,7.2-16.6,16.5-16.5
		c4.2,0,8.3,2,10.1,5.1L279.7,338.5z M260.7,354.2c0,6,4.2,9.6,9.4,9.6c12.3,0,12.3-19.2,0-19.2
		C264.9,344.7,260.7,348.2,260.7,354.2z"/>
	<g>
		<rect x="291.3" y="338.4" width="4.9" height="31.5"/>
		<path d="M290.4,328.1c0,2.2,1.7,3.4,3.4,3.4c1.7,0,3.4-1.2,3.4-3.4C297.2,323.7,290.4,323.7,290.4,328.1z"/>
		<path d="M316.1,337c-4.3,0.1-7.899,1.6-10.399,4.4v-2.8h-4.8V370h4.9v-17.5c0-6.1,4.3-10.6,10.4-10.7c6.5,0,10.3,3.7,10.3,10.1v18
			h4.9v-18.1C331.2,342.8,325.3,337,316.1,337z"/>
		<path d="M357.8,366.6c4.5-2.8,7.4-7.9,7.4-13.4c0-4.4-1.2-7.8-3.601-10.8l3.101-3.7l-3.3-2.9l-3.101,3.7c-2.6-1.6-5.8-2.6-8.8-2.6
			c-9.4,0-15.7,6.5-15.7,16.3c0,9.4,6.601,16.2,15.7,16.2c5.4,0,11.1,2.3,11.1,8.6c0,8.1-8.5,8.7-11.1,8.7c-5.3,0-11-2.3-11-8.7
			v-0.9h-4.8v0.9c0,8.1,6.399,13.5,15.8,13.5c9.8,0,15.9-5.2,15.9-13.5C365.3,372.9,362.7,368.9,357.8,366.6z M349.4,341.8
			c6.699,0,11,4.5,11,11.4c0,6.1-5,11.3-11,11.3c-7.101,0-10.9-5.7-10.9-11.3C338.5,344.8,344.1,341.8,349.4,341.8z"/>
	</g>
	<rect x="333.6" y="375.9" width="4.9" height="1.5"/>
</g>
</svg>
