<svg xmlns="http://www.w3.org/2000/svg" viewBox="0 0 99.713 26.571" enable-background="new 0 0 99.713 26.571"><path fill="#009CDE" d="M67.285 0H59.53c-.532 0-.983.386-1.066.91l-3.136 19.888c-.062.392.242.747.638.747h3.98c.37 0 .687-.27.745-.636l.89-5.64c.083-.524.535-.91 1.065-.91H65.1c5.108 0 8.057-2.472 8.827-7.373.347-2.142.014-3.826-.99-5.005C71.836.686 69.88 0 67.286 0m.895 7.264c-.424 2.784-2.55 2.784-4.607 2.784h-1.17l.82-5.198c.05-.314.32-.545.64-.545h.536c1.4 0 2.72 0 3.403.797.408.477.53 1.185.377 2.162"/><path fill="#003087" d="M11.965 0H4.21c-.532 0-.983.386-1.066.91L.008 20.798c-.062.392.24.747.638.747H4.35c.53 0 .98-.386 1.064-.91l.847-5.365c.083-.524.535-.91 1.065-.91H9.78c5.108 0 8.057-2.472 8.827-7.373.347-2.142.014-3.826-.99-5.005C16.516.686 14.56 0 11.966 0m.895 7.264c-.424 2.784-2.55 2.784-4.607 2.784h-1.17l.82-5.198c.05-.314.32-.545.64-.545h.536c1.4 0 2.72 0 3.403.797.408.477.53 1.185.377 2.162M35.147 7.175h-3.714c-.318 0-.59.23-.64.546l-.162 1.04-.258-.377c-.805-1.167-2.598-1.558-4.388-1.558-4.103 0-7.608 3.11-8.29 7.47-.355 2.177.15 4.256 1.383 5.707 1.133 1.333 2.75 1.888 4.677 1.888 3.308 0 5.142-2.124 5.142-2.124l-.166 1.032c-.062.392.24.747.64.747h3.343c.53 0 .982-.385 1.065-.91l2.008-12.713c.062-.392-.242-.747-.64-.747m-5.175 7.23c-.358 2.12-2.042 3.546-4.19 3.546-1.078 0-1.94-.346-2.495-1.002-.55-.65-.756-1.577-.582-2.608.334-2.104 2.046-3.574 4.162-3.574 1.055 0 1.91.35 2.476 1.012.57.667.794 1.6.63 2.626"/><path fill="#009CDE" d="M90.467 7.175h-3.714c-.318 0-.59.23-.64.546l-.162 1.04-.26-.377c-.803-1.167-2.596-1.558-4.386-1.558-4.103 0-7.608 3.11-8.29 7.47-.355 2.177.15 4.256 1.383 5.707 1.133 1.333 2.75 1.888 4.677 1.888 3.308 0 5.142-2.124 5.142-2.124l-.166 1.032c-.062.392.24.747.64.747h3.343c.53 0 .982-.385 1.065-.91l2.008-12.713c.062-.392-.242-.747-.64-.747m-5.175 7.23c-.358 2.12-2.042 3.546-4.19 3.546-1.078 0-1.94-.346-2.495-1.002-.55-.65-.756-1.577-.582-2.608.334-2.104 2.046-3.574 4.162-3.574 1.055 0 1.91.35 2.476 1.012.57.667.794 1.6.63 2.626"/><path fill="#003087" d="M54.928 7.175h-3.733c-.357 0-.69.177-.89.473l-5.15 7.584-2.183-7.288c-.137-.456-.557-.77-1.033-.77h-3.67c-.443 0-.755.437-.612.856l4.11 12.066-3.866 5.455c-.303.43.003 1.02.528 1.02h3.73c.352 0 .683-.172.885-.462L55.46 8.19c.296-.43-.01-1.015-.532-1.015"/><path fill="#009CDE" d="M94.845.546l-3.183 20.252c-.062.392.24.747.638.747h3.202c.53 0 .982-.386 1.064-.91L99.706.747c.06-.392-.242-.747-.64-.747h-3.582c-.32 0-.59.232-.64.546"/></svg>