<?xml version="1.0" encoding="iso-8859-1"?>
<!-- Generator: Adobe Illustrator 18.0.0, SVG Export Plug-In . SVG Version: 6.00 Build 0)  -->
<!DOCTYPE svg PUBLIC "-//W3C//DTD SVG 1.1//EN" "http://www.w3.org/Graphics/SVG/1.1/DTD/svg11.dtd">
<svg version="1.1" id="Layer_1" xmlns="http://www.w3.org/2000/svg" xmlns:xlink="http://www.w3.org/1999/xlink" x="0px" y="0px"
	 viewBox="473.026 64.808 44.889 44.889" style="enable-background:new 473.026 64.808 44.889 44.889;" xml:space="preserve">
<g>
	<g>
		<path style="fill:#4388C7;" d="M483.861,99.659c-0.114,0-0.229-0.039-0.323-0.118c-4.157-3.521-6.542-8.663-6.542-14.105
			c0-3.862,1.18-7.562,3.411-10.699c0.161-0.224,0.474-0.277,0.697-0.117c0.225,0.16,0.277,0.472,0.117,0.697
			c-2.11,2.966-3.226,6.465-3.226,10.119c0,5.147,2.256,10.01,6.188,13.341c0.211,0.179,0.236,0.494,0.059,0.705
			C484.143,99.599,484.003,99.659,483.861,99.659z"/>
	</g>
	<g>
		<path style="fill:#87C880;" d="M507.099,99.643c-0.142,0-0.282-0.06-0.381-0.177c-0.179-0.21-0.153-0.525,0.058-0.704
			c3.92-3.329,6.169-8.186,6.169-13.326c0-3.636-1.105-7.121-3.197-10.078c-0.159-0.225-0.106-0.537,0.119-0.697
			c0.225-0.158,0.537-0.106,0.697,0.12c2.212,3.126,3.381,6.811,3.381,10.655c0,5.434-2.377,10.568-6.522,14.087
			C507.328,99.604,507.213,99.643,507.099,99.643z"/>
	</g>
	<g>
		<path style="fill:#F05A24;" d="M483.854,72.219c-0.142,0-0.282-0.06-0.382-0.177c-0.178-0.21-0.152-0.526,0.059-0.705
			c3.328-2.822,7.568-4.375,11.939-4.375c4.361,0,8.596,1.549,11.922,4.361c0.21,0.178,0.237,0.494,0.059,0.705
			c-0.178,0.212-0.492,0.238-0.705,0.059c-3.146-2.66-7.15-4.125-11.275-4.125c-4.135,0-8.145,1.47-11.293,4.138
			C484.084,72.18,483.969,72.219,483.854,72.219z"/>
	</g>
	<g>
		<g>
			<path style="fill:#FC1159;" d="M502.963,101.574H488.13c-0.276,0-0.5-0.224-0.5-0.5s0.224-0.5,0.5-0.5h14.833
				c0.276,0,0.5,0.224,0.5,0.5S503.239,101.574,502.963,101.574z"/>
		</g>
		<g>
			<path style="fill:#FC1159;" d="M501.97,104.246h-12.846c-0.276,0-0.5-0.224-0.5-0.5s0.224-0.5,0.5-0.5h12.846
				c0.276,0,0.5,0.224,0.5,0.5S502.246,104.246,501.97,104.246z"/>
		</g>
	</g>
	<g>
		<g>
			<path style="fill:#FC1159;" d="M508.196,88.583c-0.12,0-0.241-0.043-0.337-0.131l-12.304-11.227L483.722,88.29
				c-0.203,0.189-0.52,0.178-0.707-0.024c-0.188-0.202-0.178-0.518,0.023-0.707l12.015-11.234c0.274-0.259,0.711-0.262,0.993-0.007
				l12.487,11.395c0.204,0.186,0.219,0.502,0.032,0.706C508.467,88.528,508.332,88.583,508.196,88.583z"/>
		</g>
		<g>
			<path style="fill:#FC1159;" d="M501.795,98.62h-12.646c-1.277,0-2.317-1.04-2.317-2.317v-8.378c0-0.276,0.224-0.5,0.5-0.5
				s0.5,0.224,0.5,0.5v8.378c0,0.727,0.591,1.317,1.317,1.317h12.646c0.727,0,1.317-0.591,1.317-1.317v-8.378
				c0-0.276,0.224-0.5,0.5-0.5s0.5,0.224,0.5,0.5v8.378C504.112,97.58,503.072,98.62,501.795,98.62z"/>
		</g>
	</g>
	<path style="fill:#FC1159;" d="M500.707,105.899c-1.397,0.986-3.289,1.596-5.094,1.642c-1.962,0.05-4.061-0.561-5.536-1.629"/>
</g>
</svg>
