<?xml version="1.0" encoding="iso-8859-1"?>
<!-- Generator: Adobe Illustrator 18.0.0, SVG Export Plug-In . SVG Version: 6.00 Build 0)  -->
<!DOCTYPE svg PUBLIC "-//W3C//DTD SVG 1.1//EN" "http://www.w3.org/Graphics/SVG/1.1/DTD/svg11.dtd">
<svg version="1.1" id="Layer_1" xmlns="http://www.w3.org/2000/svg" xmlns:xlink="http://www.w3.org/1999/xlink" x="0px" y="0px"
	 viewBox="474.637 63.933 200 54.445" style="enable-background:new 474.637 63.933 200 54.445;" xml:space="preserve">
<path style="fill:#1E2728;" d="M529.889,70.056c0,4.711-7.141,4.711-7.141,0C522.748,65.345,529.889,65.345,529.889,70.056z
	 M523.294,76.85v24.549h6.05V76.85H523.294z"/>
<path style="fill:#1E2728;" d="M558.208,66.733v34.665h-5.653l-0.397-3.372c-1.885,2.925-4.91,3.917-7.886,3.917
	c-7.191,0-12.596-4.761-12.596-12.794c0-8.431,5.307-12.795,12.448-12.795c2.579,0,6.596,1.389,8.034,3.918V66.733H558.208z
	 M537.727,89.149c0,4.265,3.075,7.191,6.943,7.191c3.818,0,7.092-2.777,7.092-7.191c0-4.265-3.274-7.141-7.092-7.141
	C540.801,82.008,537.727,84.735,537.727,89.149z"/>
<path style="fill:#1E2728;" d="M567.188,91.332c0.397,3.025,3.025,5.206,7.29,5.206c2.232,0,5.158-0.843,6.546-2.281l3.868,3.818
	c-2.579,2.678-6.794,3.967-10.513,3.967c-8.431,0-13.44-5.207-13.44-13.043c0-7.439,5.058-12.795,12.993-12.795
	c8.183,0,13.29,5.058,12.349,15.127L567.188,91.332L567.188,91.332z M580.479,86.322c-0.397-3.174-2.877-4.761-6.348-4.761
	c-3.274,0-5.952,1.587-6.844,4.761H580.479z"/>
<path style="fill:#1E2728;" d="M608.353,76.949h5.803v24.449h-5.703l-0.298-3.57c-1.389,2.876-5.207,4.264-7.935,4.314
	c-7.241,0.049-12.597-4.414-12.597-12.993c0-8.431,5.604-12.845,12.745-12.795c3.273,0,6.397,1.538,7.786,3.967L608.353,76.949z
	 M593.674,89.149c0,4.661,3.224,7.439,7.241,7.439c9.522,0,9.522-14.829,0-14.829C596.898,81.759,593.674,84.487,593.674,89.149z"/>
<g>
	<rect x="617.366" y="76.908" style="fill:#EB2148;" width="3.756" height="24.373"/>
	<path style="fill:#EB2148;" d="M616.672,68.916c0,1.705,1.319,2.597,2.622,2.597c1.302,0,2.621-0.892,2.621-2.597
		C621.915,65.505,616.672,65.507,616.672,68.916z"/>
	<path style="fill:#EB2148;" d="M636.518,75.791c-3.301,0.047-6.137,1.267-8.056,3.408v-2.192h-3.706v24.273h3.756v-13.52
		c0-4.744,3.332-8.22,8.046-8.263c5.044,0,7.936,2.849,7.936,7.817v13.967h3.756V87.264
		C648.25,80.294,643.648,75.791,636.518,75.791z"/>
	<path style="fill:#EB2148;" d="M668.831,98.742c3.463-2.145,5.707-6.13,5.707-10.337c0-3.397-0.896-6.062-2.811-8.337l2.433-2.839
		l-2.584-2.261l-2.433,2.838c-2.001-1.269-4.507-2.015-6.823-2.015c-7.278,0-12.168,5.069-12.168,12.614
		c0,7.253,5.118,12.516,12.168,12.516c4.163,0,8.611,1.754,8.611,6.677c0,6.242-6.591,6.727-8.611,6.727
		c-4.115,0-8.512-1.767-8.512-6.727v-0.663h-3.755v0.663c0,6.24,4.93,10.433,12.267,10.433c7.598,0,12.317-3.997,12.317-10.433
		C674.637,103.62,672.588,100.52,668.831,98.742z M662.32,79.546c5.171,0,8.512,3.477,8.512,8.859c0,4.749-3.898,8.761-8.512,8.761
		c-5.523,0-8.412-4.408-8.412-8.761C653.907,81.873,658.253,79.546,662.32,79.546z"/>
</g>
<rect x="650.053" y="105.958" style="fill:#EB2148;" width="3.758" height="0.976"/>
<g>
	<path style="fill:#1F2728;" d="M556.727,116.099c-1.456,0.154-3.299,0.154-4.955,0.154c-1.424,0-2.339-0.837-2.354-2.154v-6.473
		c0.015-1.316,0.93-2.151,2.354-2.151c1.657,0,3.5,0,4.955,0.154l-0.108,1.75h-4.104c-0.512,0-0.729,0.233-0.729,0.79v1.625h4.258
		v1.703h-4.258v2.06c0,0.573,0.218,0.805,0.729,0.805h4.104L556.727,116.099z"/>
	<path style="fill:#1F2728;" d="M574.001,105.738l-0.154,1.61c-0.898-0.03-2.215-0.047-3.345-0.047
		c-1.145,0-1.549,0.063-1.549,0.976c0,0.744,0.311,0.944,1.116,1.209l2.029,0.695c1.703,0.605,2.261,1.58,2.261,3.144
		c0,2.43-1.055,3.081-3.964,3.081c-0.683,0-2.029-0.047-3.671-0.402l0.14-1.703c1.982,0.047,2.848,0.076,3.531,0.076
		c1.238,0,1.579-0.169,1.579-1.037c0-0.759-0.294-0.944-1.006-1.177l-2.153-0.759c-1.625-0.587-2.215-1.549-2.215-3.127
		c0-2.447,1.13-2.958,3.886-2.958C571.539,105.32,572.809,105.398,574.001,105.738z"/>
	<path style="fill:#1F2728;" d="M588.123,105.523c0.573,0,0.866,0.309,0.883,0.881l0.419,9.803h-2.232l-0.355-8.841h-0.264
		l-1.61,6.612c-0.108,0.512-0.433,0.759-0.959,0.759h-1.549c-0.526,0-0.852-0.247-0.959-0.759l-1.627-6.612h-0.262l-0.311,8.841
		h-2.229l0.387-9.803c0.032-0.573,0.309-0.881,0.883-0.881h2.276c0.512,0,0.82,0.262,0.93,0.759l1.3,5.327
		c0.125,0.509,0.201,1.006,0.279,1.5h0.201c0.093-0.495,0.171-0.991,0.279-1.5l1.285-5.327c0.125-0.497,0.435-0.759,0.961-0.759
		H588.123z"/>
	<path style="fill:#1F2728;" d="M594.734,113.405l-0.773,2.802h-2.418l3.083-10.065c0.093-0.387,0.433-0.619,0.82-0.619h2.229
		c0.404,0,0.729,0.233,0.822,0.619l3.081,10.065h-2.401l-0.773-2.802H594.734z M596.996,108.31
		c-0.078-0.326-0.171-0.683-0.218-1.008h-0.419l-0.233,1.008l-0.898,3.267h2.665L596.996,108.31z"/>
	<path style="fill:#1F2728;" d="M609.848,116.207l-0.805-3.267c-0.203-0.683-0.512-0.898-1.147-0.898h-1.657v4.165h-2.322v-10.684
		c1.285-0.125,2.153-0.14,4.072-0.14c2.787,0,3.949,0.712,3.949,3.159c0,1.5-0.526,2.462-2.044,2.647v0.076
		c0.541,0.125,1.27,0.512,1.517,1.61l0.927,3.33h-2.491V116.207z M607.942,110.214c1.24,0,1.61-0.34,1.61-1.517
		c0-1.192-0.37-1.502-1.61-1.502l-1.703,0.015v3.005L607.942,110.214L607.942,110.214z"/>
	<path style="fill:#1F2728;" d="M619.773,107.441v8.765h-2.371v-8.765h-3.189v-1.919h8.748v1.919H619.773z"/>
	<path style="fill:#1F2728;" d="M632.779,116.099c-1.456,0.154-3.299,0.154-4.955,0.154c-1.424,0-2.339-0.837-2.354-2.154v-6.473
		c0.015-1.316,0.93-2.151,2.354-2.151c1.657,0,3.5,0,4.955,0.154l-0.108,1.75h-4.104c-0.512,0-0.729,0.233-0.729,0.79v1.625h4.258
		v1.703h-4.258v2.06c0,0.573,0.218,0.805,0.729,0.805h4.104L632.779,116.099z"/>
	<path style="fill:#1F2728;" d="M641.652,116.207l-0.805-3.267c-0.203-0.683-0.512-0.898-1.147-0.898h-1.657v4.165h-2.322v-10.684
		c1.285-0.125,2.154-0.14,4.072-0.14c2.787,0,3.95,0.712,3.95,3.159c0,1.5-0.526,2.462-2.044,2.647v0.076
		c0.541,0.125,1.27,0.512,1.517,1.61l0.927,3.33h-2.491V116.207z M639.746,110.214c1.24,0,1.61-0.34,1.61-1.517
		c0-1.192-0.37-1.502-1.61-1.502l-1.703,0.015v3.005L639.746,110.214L639.746,110.214z"/>
	<path style="fill:#1F2728;" d="M525.598,113.498c0,0.556,0.233,0.788,0.837,0.788h3.671l0.108,1.796
		c-1.424,0.156-3.005,0.171-4.522,0.171c-1.718,0-2.447-0.959-2.447-2.276v-8.455h2.354V113.498z"/>
	<path style="fill:#1F2728;" d="M532.751,116.207v-10.684h2.354v10.684H532.751z"/>
	<path style="fill:#1F2728;" d="M544.271,115.556c-0.093,0.387-0.419,0.651-0.837,0.651h-2.151c-0.419,0-0.744-0.264-0.837-0.651
		l-2.912-10.033h2.432l1.936,7.711c0.093,0.387,0.186,0.805,0.262,1.192h0.389c0.061-0.387,0.169-0.805,0.262-1.192l1.921-7.711
		h2.43L544.271,115.556z"/>
</g>
<g>
	<g>
		<path style="fill:#4388C7;" d="M484.335,99.38c-0.114,0-0.229-0.039-0.323-0.118c-4.157-3.521-6.542-8.663-6.542-14.105
			c0-3.862,1.18-7.562,3.411-10.699c0.161-0.224,0.474-0.277,0.697-0.117c0.225,0.16,0.277,0.472,0.117,0.697
			c-2.11,2.966-3.226,6.465-3.226,10.119c0,5.147,2.256,10.01,6.188,13.341c0.211,0.179,0.236,0.494,0.059,0.705
			C484.617,99.32,484.476,99.38,484.335,99.38z"/>
	</g>
	<g>
		<path style="fill:#87C880;" d="M507.572,99.364c-0.142,0-0.282-0.06-0.381-0.177c-0.179-0.21-0.153-0.525,0.058-0.704
			c3.92-3.329,6.169-8.186,6.169-13.326c0-3.636-1.105-7.121-3.197-10.078c-0.159-0.225-0.106-0.537,0.119-0.697
			c0.225-0.158,0.537-0.106,0.697,0.12c2.212,3.126,3.381,6.811,3.381,10.655c0,5.434-2.377,10.568-6.522,14.087
			C507.802,99.324,507.686,99.364,507.572,99.364z"/>
	</g>
	<g>
		<path style="fill:#F05A24;" d="M484.328,71.94c-0.142,0-0.282-0.06-0.382-0.177c-0.178-0.21-0.152-0.526,0.059-0.705
			c3.328-2.822,7.568-4.375,11.939-4.375c4.361,0,8.596,1.549,11.922,4.361c0.21,0.178,0.237,0.494,0.059,0.705
			c-0.178,0.212-0.492,0.238-0.705,0.059c-3.146-2.66-7.15-4.125-11.275-4.125c-4.135,0-8.145,1.47-11.293,4.138
			C484.557,71.901,484.442,71.94,484.328,71.94z"/>
	</g>
	<g>
		<g>
			<path style="fill:#FC1159;" d="M503.436,101.295h-14.833c-0.276,0-0.5-0.224-0.5-0.5s0.224-0.5,0.5-0.5h14.833
				c0.276,0,0.5,0.224,0.5,0.5S503.713,101.295,503.436,101.295z"/>
		</g>
		<g>
			<path style="fill:#FC1159;" d="M502.443,103.967h-12.846c-0.276,0-0.5-0.224-0.5-0.5s0.224-0.5,0.5-0.5h12.846
				c0.276,0,0.5,0.224,0.5,0.5S502.72,103.967,502.443,103.967z"/>
		</g>
	</g>
	<g>
		<g>
			<path style="fill:#FC1159;" d="M508.67,88.304c-0.12,0-0.241-0.043-0.337-0.131l-12.304-11.227l-11.834,11.065
				c-0.203,0.189-0.52,0.178-0.707-0.024c-0.188-0.202-0.178-0.518,0.023-0.707l12.015-11.234c0.274-0.259,0.711-0.262,0.993-0.007
				l12.487,11.395c0.204,0.186,0.219,0.502,0.032,0.706C508.94,88.249,508.805,88.304,508.67,88.304z"/>
		</g>
		<g>
			<path style="fill:#FC1159;" d="M502.268,98.341h-12.646c-1.277,0-2.317-1.04-2.317-2.317v-8.378c0-0.276,0.224-0.5,0.5-0.5
				s0.5,0.224,0.5,0.5v8.378c0,0.727,0.591,1.317,1.317,1.317h12.646c0.727,0,1.317-0.591,1.317-1.317v-8.378
				c0-0.276,0.224-0.5,0.5-0.5s0.5,0.224,0.5,0.5v8.378C504.586,97.301,503.546,98.341,502.268,98.341z"/>
		</g>
	</g>
	<path style="fill:#FC1159;" d="M501.18,105.62c-1.397,0.986-3.289,1.596-5.094,1.642c-1.962,0.05-4.061-0.561-5.536-1.629"/>
</g>
</svg>
