<?xml version="1.0" encoding="utf-8"?>
<!-- Generator: Adobe Illustrator 16.0.0, SVG Export Plug-In . SVG Version: 6.00 Build 0)  -->
<!DOCTYPE svg PUBLIC "-//W3C//DTD SVG 1.1//EN" "http://www.w3.org/Graphics/SVG/1.1/DTD/svg11.dtd">
<svg version="1.1" id="Layer_1" xmlns="http://www.w3.org/2000/svg" xmlns:xlink="http://www.w3.org/1999/xlink" x="0px" y="0px"
	 width="30px" height="10px" viewBox="0 0 30 10" enable-background="new 0 0 30 10" xml:space="preserve">
<g>
	<path fill="#1E2728" d="M8.171,1.649c0,0.691-1.049,0.691-1.049,0C7.123,0.957,8.171,0.957,8.171,1.649 M7.203,6.252H8.09V2.646
		H7.203V6.252z"/>
	<path fill="#1E2728" d="M12.332,1.16v5.092H11.5l-0.059-0.494c-0.275,0.43-0.721,0.574-1.157,0.574
		c-1.058,0-1.851-0.699-1.851-1.879c0-1.238,0.779-1.879,1.828-1.879c0.379,0,0.969,0.204,1.18,0.574V1.16H12.332z M9.323,4.453
		c0,0.627,0.452,1.057,1.021,1.057c0.561,0,1.042-0.408,1.042-1.057c0-0.627-0.481-1.048-1.042-1.048
		C9.774,3.405,9.323,3.805,9.323,4.453"/>
	<path fill="#1E2728" d="M13.65,4.774c0.059,0.445,0.445,0.765,1.072,0.765c0.328,0,0.757-0.125,0.96-0.336l0.568,0.563
		c-0.379,0.393-0.998,0.582-1.544,0.582c-1.238,0-1.975-0.766-1.975-1.917c0-1.092,0.744-1.879,1.909-1.879
		c1.202,0,1.952,0.743,1.815,2.223H13.65z M15.603,4.038c-0.057-0.466-0.422-0.699-0.932-0.699c-0.48,0-0.874,0.233-1.006,0.699
		H15.603z"/>
	<path fill="#1E2728" d="M19.698,2.661h0.852v3.591h-0.838l-0.043-0.523c-0.205,0.422-0.766,0.625-1.166,0.633
		c-1.064,0.008-1.85-0.648-1.85-1.909c0-1.238,0.822-1.887,1.871-1.879c0.48,0,0.939,0.226,1.145,0.582L19.698,2.661z M17.542,4.453
		c0,0.686,0.473,1.094,1.063,1.094c1.398,0,1.398-2.18,0-2.18C18.015,3.367,17.542,3.768,17.542,4.453"/>
	<rect x="21.022" y="2.655" fill="#4388C7" width="0.551" height="3.58"/>
	<path fill="#4388C7" d="M20.919,1.481c0,0.251,0.195,0.382,0.387,0.382s0.383-0.131,0.383-0.382
		C21.688,0.98,20.919,0.98,20.919,1.481"/>
	<path fill="#4388C7" d="M23.835,2.491c-0.484,0.007-0.902,0.187-1.184,0.501V2.669h-0.543v3.565h0.551V4.249
		c0-0.696,0.488-1.207,1.182-1.214c0.74,0,1.166,0.419,1.166,1.148v2.051h0.551V4.175C25.558,3.153,24.884,2.491,23.835,2.491"/>
	<path fill="#4388C7" d="M28.581,5.863c0.51-0.316,0.84-0.901,0.84-1.52c0-0.499-0.133-0.891-0.414-1.224l0.357-0.417l-0.379-0.332
		l-0.357,0.416c-0.295-0.186-0.662-0.296-1.002-0.296c-1.07,0-1.789,0.745-1.789,1.853c0,1.067,0.754,1.84,1.789,1.84
		c0.611,0,1.264,0.256,1.264,0.979c0,0.918-0.967,0.99-1.264,0.99c-0.605,0-1.252-0.26-1.252-0.99V7.066h-0.551v0.096
		c0,0.918,0.725,1.533,1.803,1.533c1.115,0,1.809-0.586,1.809-1.533C29.435,6.58,29.134,6.123,28.581,5.863 M27.626,3.042
		c0.76,0,1.25,0.511,1.25,1.301c0,0.697-0.572,1.288-1.25,1.288c-0.813,0-1.236-0.647-1.236-1.288
		C26.39,3.384,27.028,3.042,27.626,3.042"/>
	<rect x="25.823" y="6.922" fill="#4388C7" width="0.551" height="0.145"/>
	<path fill="#1F2728" d="M7.708,7.129c-0.074,0-0.137,0.016-0.185,0.047C7.474,7.205,7.451,7.252,7.451,7.314
		c0,0.061,0.023,0.109,0.072,0.143c0.048,0.033,0.15,0.068,0.308,0.105c0.156,0.037,0.274,0.09,0.354,0.16
		c0.08,0.068,0.12,0.168,0.12,0.303c0,0.133-0.051,0.242-0.151,0.324C8.053,8.434,7.92,8.475,7.757,8.475
		c-0.239,0-0.452-0.082-0.637-0.246l0.161-0.195c0.155,0.135,0.315,0.201,0.482,0.201c0.083,0,0.149-0.018,0.197-0.055
		C8.01,8.145,8.036,8.098,8.036,8.037c0-0.057-0.023-0.104-0.069-0.137s-0.125-0.063-0.237-0.09C7.617,7.785,7.531,7.76,7.473,7.736
		c-0.059-0.023-0.11-0.053-0.156-0.09c-0.09-0.068-0.136-0.172-0.136-0.314c0-0.141,0.052-0.25,0.155-0.326
		C7.439,6.93,7.566,6.891,7.718,6.891c0.098,0,0.195,0.016,0.291,0.047c0.096,0.033,0.18,0.078,0.249,0.137L8.121,7.27
		C8.076,7.229,8.014,7.193,7.937,7.168S7.783,7.129,7.708,7.129"/>
	<polygon fill="#1F2728" points="8.648,8.459 8.648,6.928 8.907,6.928 8.907,7.592 9.667,7.592 9.667,6.928 9.925,6.928 
		9.925,8.459 9.667,8.459 9.667,7.832 8.907,7.832 8.907,8.459 	"/>
	<path fill="#1F2728" d="M11.654,8.246c-0.154,0.152-0.345,0.227-0.573,0.227c-0.228,0-0.419-0.074-0.574-0.227
		c-0.154-0.15-0.231-0.34-0.231-0.564s0.077-0.414,0.231-0.564c0.155-0.152,0.347-0.227,0.574-0.227
		c0.229,0,0.419,0.074,0.573,0.227c0.154,0.15,0.232,0.34,0.232,0.564S11.808,8.096,11.654,8.246 M11.464,7.289
		c-0.104-0.109-0.231-0.162-0.384-0.162c-0.151,0-0.279,0.053-0.385,0.162c-0.104,0.107-0.156,0.238-0.156,0.393
		s0.053,0.285,0.156,0.393c0.105,0.107,0.233,0.162,0.385,0.162c0.152,0,0.28-0.055,0.384-0.162
		c0.104-0.107,0.156-0.238,0.156-0.393S11.569,7.396,11.464,7.289"/>
	<path fill="#1F2728" d="M13.27,7.061c0.106,0.09,0.159,0.227,0.159,0.412s-0.054,0.322-0.162,0.408
		c-0.109,0.086-0.275,0.129-0.501,0.129h-0.271v0.449h-0.258V6.928h0.525C12.994,6.928,13.164,6.973,13.27,7.061 M13.086,7.693
		c0.053-0.057,0.078-0.135,0.078-0.242c0-0.105-0.033-0.18-0.098-0.225C13,7.184,12.898,7.162,12.757,7.162h-0.263v0.611h0.301
		C12.937,7.773,13.036,7.748,13.086,7.693"/>
	<path fill="#1F2728" d="M14.845,7.129c-0.075,0-0.137,0.016-0.186,0.047c-0.048,0.029-0.071,0.076-0.071,0.139
		c0,0.061,0.023,0.109,0.071,0.143c0.049,0.033,0.15,0.068,0.308,0.105c0.156,0.037,0.275,0.09,0.354,0.16
		c0.08,0.068,0.119,0.168,0.119,0.303c0,0.133-0.049,0.242-0.148,0.324c-0.102,0.084-0.234,0.125-0.397,0.125
		c-0.239,0-0.452-0.082-0.638-0.246l0.162-0.195c0.154,0.135,0.315,0.201,0.481,0.201c0.084,0,0.149-0.018,0.198-0.055
		c0.049-0.035,0.074-0.082,0.074-0.143c0-0.057-0.023-0.104-0.068-0.137c-0.047-0.033-0.127-0.063-0.238-0.09
		c-0.113-0.025-0.198-0.051-0.256-0.074c-0.059-0.023-0.11-0.053-0.156-0.09c-0.09-0.068-0.136-0.172-0.136-0.314
		c0-0.141,0.051-0.25,0.154-0.326c0.103-0.076,0.229-0.115,0.382-0.115c0.097,0,0.195,0.016,0.292,0.047
		c0.096,0.033,0.178,0.078,0.248,0.137L15.259,7.27c-0.047-0.041-0.107-0.076-0.186-0.102C14.997,7.143,14.92,7.129,14.845,7.129"/>
	<polygon fill="#1F2728" points="16.044,8.459 15.786,8.459 15.786,6.928 16.188,6.928 16.651,7.889 17.112,6.928 17.513,6.928 
		17.513,8.459 17.255,8.459 17.255,7.262 16.72,8.324 16.575,8.324 16.044,7.262 16.044,8.459 	"/>
	<path fill="#1F2728" d="M18.179,8.109l-0.152,0.35h-0.277l0.676-1.531h0.273l0.676,1.531h-0.275l-0.154-0.35H18.179z M18.841,7.871
		L18.562,7.24l-0.277,0.631H18.841z"/>
	<path fill="#1F2728" d="M20.831,7.424c0,0.254-0.109,0.412-0.33,0.479l0.4,0.557h-0.328l-0.365-0.516h-0.34v0.516H19.61V6.928h0.57
		c0.232,0,0.4,0.039,0.5,0.119C20.78,7.125,20.831,7.252,20.831,7.424 M20.487,7.641c0.053-0.045,0.08-0.117,0.08-0.217
		s-0.027-0.17-0.082-0.205c-0.055-0.039-0.15-0.057-0.289-0.057h-0.328v0.547h0.322C20.337,7.709,20.437,7.688,20.487,7.641"/>
	<polygon fill="#1F2728" points="21.784,7.164 21.784,8.459 21.526,8.459 21.526,7.164 21.062,7.164 21.062,6.928 22.247,6.928 
		22.247,7.164 	"/>
	<polygon fill="#1F2728" points="23.628,6.928 23.628,7.17 22.812,7.17 22.812,7.576 23.544,7.576 23.544,7.805 22.812,7.805 
		22.812,8.215 23.653,8.215 23.653,8.457 22.552,8.457 22.552,6.928 	"/>
	<path fill="#1F2728" d="M25.231,7.424c0,0.254-0.111,0.412-0.332,0.479l0.4,0.557h-0.328l-0.365-0.516h-0.34v0.516h-0.258V6.928
		h0.57c0.232,0,0.4,0.039,0.5,0.119C25.181,7.125,25.231,7.252,25.231,7.424 M24.886,7.641c0.053-0.045,0.08-0.117,0.08-0.217
		s-0.027-0.17-0.082-0.205c-0.055-0.039-0.15-0.057-0.289-0.057h-0.328v0.547h0.322C24.735,7.709,24.835,7.688,24.886,7.641"/>
	<path fill="#4388C7" d="M5.078,6.211h-3.93c-0.045,0-0.074-0.029-0.074-0.072c0-0.045,0.029-0.074,0.074-0.074h3.93
		c0.044,0,0.074,0.029,0.074,0.074C5.152,6.182,5.123,6.211,5.078,6.211"/>
	<path fill="#4388C7" d="M4.204,3.499c-0.059,0-0.118-0.045-0.118-0.118V2.481c0-0.533-0.43-0.963-0.963-0.963
		s-0.962,0.43-0.962,0.963V3.38c0,0.06-0.044,0.118-0.119,0.118c-0.073,0-0.118-0.045-0.118-0.118V2.481
		c0-0.651,0.533-1.185,1.186-1.185c0.65,0,1.184,0.533,1.184,1.185V3.38C4.307,3.44,4.262,3.499,4.204,3.499"/>
	<path fill="#4388C7" d="M3.71,2.643H2.539c-0.061,0-0.11-0.05-0.11-0.11c0-0.062,0.05-0.11,0.11-0.11H3.71
		c0.062,0,0.11,0.049,0.11,0.11C3.821,2.593,3.772,2.643,3.71,2.643"/>
	<path fill="#4388C7" d="M5.211,7.178h-4.15c-0.273,0-0.495-0.223-0.495-0.496V2.917c0-0.273,0.222-0.495,0.495-0.495h0.377
		c0.061,0,0.11,0.049,0.11,0.11c0,0.061-0.05,0.11-0.11,0.11H1.061c-0.151,0-0.275,0.122-0.275,0.274v3.764
		c0,0.152,0.124,0.275,0.275,0.275h4.15c0.152,0,0.275-0.123,0.275-0.275V2.917c0-0.152-0.123-0.274-0.275-0.274H4.767
		c-0.061,0-0.11-0.05-0.11-0.11c0-0.062,0.05-0.11,0.11-0.11h0.444c0.273,0,0.496,0.222,0.496,0.495v3.764
		C5.708,6.955,5.485,7.178,5.211,7.178"/>
</g>
</svg>
