<?xml version="1.0" encoding="utf-8"?>
<!-- Generator: Adobe Illustrator 16.0.0, SVG Export Plug-In . SVG Version: 6.00 Build 0)  -->
<!DOCTYPE svg PUBLIC "-//W3C//DTD SVG 1.1//EN" "http://www.w3.org/Graphics/SVG/1.1/DTD/svg11.dtd">
<svg version="1.1" id="Layer_1" xmlns="http://www.w3.org/2000/svg" xmlns:xlink="http://www.w3.org/1999/xlink" x="0px" y="0px"
	 width="30px" height="10px" viewBox="0 0 30 10" enable-background="new 0 0 30 10" xml:space="preserve">
<g>
	<path fill="#1E2728" d="M8.131,1.636c0,0.694-1.051,0.694-1.051,0C7.081,0.943,8.131,0.943,8.131,1.636z M7.16,2.64v3.614h0.892
		V2.64H7.16z"/>
	<path fill="#1E2728" d="M12.303,1.147v5.104H11.47l-0.059-0.496c-0.277,0.432-0.724,0.576-1.161,0.576
		c-1.06,0-1.856-0.699-1.856-1.885c0-1.24,0.782-1.884,1.834-1.884c0.381,0,0.972,0.204,1.184,0.577V1.147H12.303z M9.286,4.448
		c0,0.629,0.452,1.06,1.022,1.06c0.563,0,1.045-0.407,1.045-1.06c0-0.628-0.482-1.051-1.045-1.051
		C9.74,3.398,9.286,3.798,9.286,4.448z"/>
	<path fill="#1E2728" d="M13.626,4.771c0.058,0.445,0.445,0.767,1.073,0.767c0.328,0,0.76-0.123,0.962-0.337l0.568,0.563
		c-0.379,0.394-1,0.584-1.547,0.584c-1.24,0-1.979-0.766-1.979-1.92c0-1.097,0.744-1.885,1.914-1.885
		c1.203,0,1.957,0.745,1.818,2.228H13.626L13.626,4.771z M15.582,4.033c-0.059-0.468-0.423-0.701-0.933-0.701
		c-0.481,0-0.878,0.235-1.009,0.701H15.582z"/>
	<path fill="#1E2728" d="M19.686,2.652h0.855v3.6h-0.84l-0.043-0.523c-0.205,0.424-0.768,0.629-1.168,0.635
		c-1.066,0.01-1.857-0.65-1.857-1.914c0-1.24,0.826-1.892,1.877-1.884c0.482,0,0.943,0.227,1.148,0.584L19.686,2.652z M17.525,4.448
		c0,0.688,0.477,1.099,1.066,1.099c1.404,0,1.404-2.187,0-2.187C18,3.361,17.525,3.764,17.525,4.448z"/>
	<g>
		<rect x="21.016" y="2.647" fill="#EB2148" width="0.553" height="3.59"/>
		<path fill="#EB2148" d="M20.912,1.47c0,0.251,0.193,0.383,0.385,0.383s0.387-0.131,0.387-0.383
			C21.684,0.966,20.912,0.967,20.912,1.47z"/>
		<path fill="#EB2148" d="M23.834,2.482c-0.486,0.007-0.904,0.186-1.188,0.502V2.663h-0.545v3.573h0.555v-1.99
			c0-0.699,0.49-1.211,1.186-1.217c0.742,0,1.168,0.42,1.168,1.149v2.058h0.553V4.172C25.563,3.145,24.885,2.482,23.834,2.482z"/>
		<path fill="#EB2148" d="M28.596,5.862c0.51-0.315,0.838-0.902,0.838-1.522c0-0.501-0.131-0.893-0.414-1.229l0.359-0.418
			L28.998,2.36l-0.357,0.419c-0.295-0.187-0.664-0.296-1.006-0.296c-1.07,0-1.789,0.746-1.789,1.857
			c0,1.068,0.752,1.845,1.789,1.845c0.613,0,1.27,0.259,1.27,0.982c0,0.92-0.971,0.99-1.27,0.99c-0.607,0-1.252-0.259-1.252-0.99
			V7.069h-0.555v0.097c0,0.922,0.727,1.539,1.807,1.539c1.119,0,1.814-0.59,1.814-1.539C29.449,6.582,29.146,6.125,28.596,5.862z
			 M27.635,3.036c0.762,0,1.254,0.514,1.254,1.305c0,0.699-0.574,1.291-1.254,1.291c-0.813,0-1.236-0.649-1.236-1.291
			C26.395,3.377,27.035,3.036,27.635,3.036z"/>
	</g>
	<rect x="25.828" y="6.926" fill="#EB2148" width="0.555" height="0.144"/>
	<g>
		<path fill="#1F2728" d="M7.667,7.131c-0.076,0-0.137,0.017-0.185,0.047C7.434,7.209,7.409,7.254,7.409,7.318
			c0,0.061,0.023,0.109,0.072,0.143c0.048,0.033,0.151,0.068,0.308,0.105c0.156,0.038,0.276,0.091,0.356,0.161
			c0.081,0.069,0.121,0.171,0.121,0.304c0,0.135-0.051,0.242-0.151,0.326C8.013,8.44,7.881,8.482,7.717,8.482
			c-0.24,0-0.452-0.082-0.638-0.249L7.24,8.039c0.156,0.137,0.316,0.2,0.482,0.2c0.084,0,0.149-0.017,0.199-0.053
			c0.05-0.035,0.073-0.084,0.073-0.144S7.972,7.938,7.925,7.905C7.88,7.873,7.801,7.842,7.689,7.815
			C7.577,7.789,7.49,7.765,7.432,7.742c-0.059-0.023-0.11-0.053-0.155-0.089C7.186,7.584,7.14,7.479,7.14,7.336
			c0-0.144,0.052-0.25,0.154-0.328c0.104-0.076,0.231-0.114,0.383-0.114c0.099,0,0.195,0.016,0.293,0.047
			c0.096,0.033,0.18,0.078,0.249,0.138L8.081,7.273C8.035,7.231,7.974,7.197,7.898,7.172C7.82,7.145,7.742,7.131,7.667,7.131z"/>
		<path fill="#1F2728" d="M8.611,8.465V6.93H8.87v0.667h0.762V6.93h0.259v1.535h-0.26V7.836H8.869v0.629H8.611z"/>
		<path fill="#1F2728" d="M11.624,8.252c-0.155,0.152-0.347,0.229-0.575,0.229c-0.229,0-0.421-0.076-0.574-0.229
			c-0.155-0.151-0.232-0.338-0.232-0.563c0-0.228,0.077-0.416,0.232-0.567c0.153-0.15,0.346-0.227,0.574-0.227
			s0.42,0.074,0.575,0.227c0.156,0.152,0.232,0.342,0.232,0.567C11.857,7.914,11.78,8.101,11.624,8.252z M11.434,7.293
			c-0.104-0.107-0.232-0.162-0.385-0.162c-0.153,0-0.281,0.057-0.385,0.162c-0.104,0.107-0.157,0.24-0.157,0.396
			c0,0.153,0.052,0.284,0.157,0.394c0.105,0.108,0.233,0.164,0.385,0.164s0.281-0.057,0.385-0.164
			c0.105-0.108,0.157-0.24,0.157-0.394C11.591,7.533,11.539,7.4,11.434,7.293z"/>
		<path fill="#1F2728" d="M13.244,7.064c0.106,0.089,0.16,0.227,0.16,0.412c0,0.188-0.056,0.322-0.163,0.408
			c-0.109,0.087-0.276,0.129-0.501,0.129h-0.272v0.451h-0.259V6.93h0.526C12.967,6.93,13.138,6.974,13.244,7.064z M13.061,7.697
			c0.052-0.055,0.078-0.135,0.078-0.242c0-0.104-0.033-0.18-0.099-0.224c-0.066-0.044-0.17-0.065-0.31-0.065h-0.264V7.78h0.3
			C12.91,7.78,13.008,7.752,13.061,7.697z"/>
		<path fill="#1F2728" d="M14.823,7.131c-0.074,0-0.137,0.017-0.186,0.047c-0.048,0.029-0.072,0.076-0.072,0.141
			c0,0.061,0.023,0.109,0.072,0.143s0.15,0.068,0.309,0.105c0.157,0.038,0.276,0.091,0.354,0.161
			c0.08,0.069,0.119,0.171,0.119,0.304c0,0.135-0.052,0.242-0.152,0.326c-0.1,0.083-0.229,0.125-0.396,0.125
			c-0.239,0-0.452-0.082-0.638-0.249l0.162-0.194c0.155,0.137,0.315,0.2,0.482,0.2c0.084,0,0.15-0.017,0.199-0.053
			c0.049-0.035,0.072-0.084,0.072-0.144s-0.021-0.104-0.068-0.138c-0.045-0.032-0.125-0.063-0.237-0.091s-0.198-0.051-0.257-0.073
			s-0.11-0.053-0.155-0.089c-0.092-0.068-0.137-0.175-0.137-0.316c0-0.144,0.053-0.25,0.155-0.328
			c0.104-0.076,0.23-0.114,0.383-0.114c0.099,0,0.195,0.016,0.293,0.047c0.096,0.033,0.178,0.078,0.246,0.138l-0.137,0.196
			c-0.048-0.042-0.107-0.075-0.185-0.103C14.976,7.145,14.899,7.131,14.823,7.131z"/>
		<path fill="#1F2728" d="M16.025,8.465h-0.26V6.93h0.404l0.463,0.964l0.463-0.964h0.402v1.535h-0.26V7.266l-0.535,1.063h-0.145
			l-0.533-1.063V8.465L16.025,8.465z"/>
		<path fill="#1F2728" d="M18.162,8.115L18.01,8.467h-0.277l0.678-1.536h0.275l0.678,1.536h-0.279L18.93,8.115H18.162z
			 M18.826,7.877l-0.279-0.633L18.27,7.877H18.826z"/>
		<path fill="#1F2728" d="M20.824,7.43c0,0.253-0.111,0.41-0.332,0.477l0.402,0.561h-0.33l-0.367-0.519h-0.338v0.519H19.6V6.93
			h0.568c0.234,0,0.404,0.039,0.504,0.117C20.773,7.127,20.824,7.254,20.824,7.43z M20.48,7.647c0.053-0.047,0.078-0.118,0.078-0.22
			c0-0.1-0.027-0.17-0.082-0.207c-0.055-0.036-0.15-0.055-0.289-0.055h-0.328v0.549h0.322C20.328,7.715,20.428,7.691,20.48,7.647z"
			/>
		<path fill="#1F2728" d="M21.779,7.168v1.299h-0.26V7.168h-0.465V6.93h1.191v0.238H21.779z"/>
		<path fill="#1F2728" d="M23.627,6.93v0.244h-0.818v0.404h0.734v0.23h-0.734v0.412h0.844v0.246h-1.104V6.93H23.627L23.627,6.93z"/>
		<path fill="#1F2728" d="M25.234,7.43c0,0.253-0.111,0.41-0.332,0.477l0.4,0.561h-0.328l-0.367-0.519h-0.34v0.519h-0.26V6.93h0.572
			c0.232,0,0.4,0.039,0.502,0.117C25.182,7.127,25.234,7.254,25.234,7.43z M24.889,7.647c0.053-0.047,0.08-0.118,0.08-0.22
			c0-0.1-0.027-0.17-0.082-0.207c-0.053-0.034-0.152-0.055-0.291-0.055h-0.328v0.549h0.322C24.738,7.715,24.836,7.691,24.889,7.647z
			"/>
	</g>
	<g>
		<g>
			<g>
				<path fill="#EB2148" d="M5.074,6.213h-3.94c-0.044,0-0.074-0.03-0.074-0.074c0-0.045,0.03-0.073,0.074-0.073h3.94
					c0.044,0,0.073,0.028,0.073,0.073C5.147,6.183,5.118,6.213,5.074,6.213z"/>
			</g>
			<g>
				<path fill="#EB2148" d="M4.198,3.494c-0.06,0-0.119-0.045-0.119-0.119V2.472c0-0.534-0.43-0.965-0.965-0.965
					c-0.534,0-0.965,0.43-0.965,0.965v0.901c0,0.06-0.045,0.119-0.119,0.119c-0.074,0-0.118-0.044-0.118-0.118V2.472
					c0-0.652,0.534-1.188,1.188-1.188c0.652,0,1.188,0.535,1.188,1.188v0.901C4.301,3.433,4.257,3.494,4.198,3.494z"/>
			</g>
		</g>
	</g>
	<g>
		<path fill="#EB2148" d="M3.704,2.634H2.529c-0.061,0-0.109-0.051-0.109-0.111c0-0.062,0.049-0.111,0.109-0.111h1.175
			c0.06,0,0.109,0.05,0.109,0.111C3.814,2.584,3.764,2.634,3.704,2.634z"/>
	</g>
	<g>
		<path fill="#EB2148" d="M5.208,7.181h-4.16c-0.274,0-0.497-0.222-0.497-0.495V2.912c0-0.273,0.224-0.497,0.497-0.497h0.377
			c0.062,0,0.111,0.049,0.111,0.11s-0.05,0.111-0.111,0.111H1.048c-0.152,0-0.276,0.123-0.276,0.276v3.775
			c0,0.151,0.124,0.276,0.276,0.276h4.16c0.152,0,0.276-0.125,0.276-0.276V2.912c0-0.153-0.124-0.276-0.276-0.276H4.763
			c-0.062,0-0.11-0.051-0.11-0.111c0-0.062,0.049-0.111,0.11-0.111h0.445c0.274,0,0.497,0.224,0.497,0.498v3.775
			C5.705,6.959,5.483,7.181,5.208,7.181z"/>
	</g>
</g>
</svg>
