<?xml version="1.0" encoding="utf-8"?>
<!-- Generator: Adobe Illustrator 18.0.0, SVG Export Plug-In . SVG Version: 6.00 Build 0)  -->
<!DOCTYPE svg PUBLIC "-//W3C//DTD SVG 1.1//EN" "http://www.w3.org/Graphics/SVG/1.1/DTD/svg11.dtd">
<svg version="1.1"
	 id="svg3956" xmlns:svg="http://www.w3.org/2000/svg" xmlns:rdf="http://www.w3.org/1999/02/22-rdf-syntax-ns#" xmlns:dc="http://purl.org/dc/elements/1.1/" xmlns:cc="http://creativecommons.org/ns#"
	 xmlns="http://www.w3.org/2000/svg" xmlns:xlink="http://www.w3.org/1999/xlink" x="0px" y="0px" viewBox="0 77 338.4 53"
	 enable-background="new 0 77 338.4 53" xml:space="preserve">
<g>
	<g>
		<path id="path3321" d="M59,109c0,2.3,0.1,2.6,1.3,2.8l0.7,0.1c0.1,0.1,0.1,0.5-0.1,0.5c-1.3-0.1-2-0.1-2.9-0.1
			c-0.8,0-1.6,0-3.1,0.1c-0.1-0.1-0.2-0.4,0-0.5l0.8-0.1c1.3-0.1,1.4-0.4,1.4-2.8v-9.8c0-0.7,0-0.7-0.6-0.7h-1.2
			c-1,0-2.2,0.1-2.7,0.5c-0.5,0.5-0.7,1-1,1.5c-0.2,0.2-0.5,0-0.6-0.2c0.4-1,0.7-2.4,0.8-3.3c0.1-0.1,0.4-0.1,0.4,0
			c0.1,0.7,0.8,0.7,1.9,0.7h8.9c1.2,0,1.4-0.1,1.7-0.6c0.1-0.1,0.4,0,0.4,0.1c-0.3,0.9-0.4,2.7-0.3,3.3c-0.1,0.2-0.5,0.2-0.6,0.1
			c-0.1-0.5-0.2-1.4-0.5-1.6c-0.5-0.4-1.3-0.5-2.5-0.5h-1.5c-0.6,0-0.6,0-0.6,0.7V109L59,109z"/>
		<path id="path3325" d="M73,105.2c-1.1,0-1.1,0.1-1.1,0.7v3.1c0,2.3,0.1,2.6,1.3,2.8l0.6,0.1c0.1,0.1,0.1,0.5-0.1,0.5
			c-1.2-0.1-1.9-0.1-2.8-0.1c-1,0-1.7,0.1-2.5,0.1c-0.2-0.1-0.2-0.4-0.1-0.5l0.4-0.1c1.2-0.2,1.3-0.4,1.3-2.8v-7.9
			c0-2.3-0.2-2.7-1.3-2.8l-0.6-0.1c-0.2-0.1-0.1-0.5,0.1-0.5c1.1,0,1.8,0.1,2.8,0.1c0.8,0,1.6,0,2.5-0.1c0.2,0.1,0.2,0.5,0.1,0.5
			l-0.4,0.1c-1.3,0.2-1.3,0.5-1.3,2.8v2.5c0,0.7,0.1,0.7,1.1,0.7h6.2c1.1,0,1.1,0,1.1-0.7v-2.5c0-2.3-0.1-2.6-1.3-2.8l-0.4-0.1
			c-0.1-0.1-0.1-0.5,0.1-0.5c1,0.1,1.7,0.1,2.6,0.1c0.8,0,1.6,0,2.6-0.1c0.2,0.1,0.2,0.5,0.1,0.5l-0.5,0.1c-1.3,0.2-1.3,0.5-1.3,2.8
			v7.9c0,2.3,0.1,2.6,1.3,2.8l0.5,0.1c0.2,0.1,0.1,0.5-0.1,0.5c-1.1-0.1-1.8-0.1-2.6-0.1c-0.9,0-1.7,0-2.6,0.1
			c-0.2-0.1-0.2-0.4-0.1-0.5l0.4-0.1c1.3-0.2,1.3-0.4,1.3-2.8v-3.1c0-0.6-0.1-0.7-1.1-0.7H73L73,105.2z"/>
		<path id="path3329" d="M89.5,101.1c0-2.3-0.1-2.6-1.3-2.8l-0.4-0.1c-0.1-0.1-0.1-0.5,0.1-0.5c1,0.1,1.7,0.1,2.6,0.1h4.1
			c1.4,0,2.7,0,3-0.1c0.1,0.4,0.3,2,0.4,2.9c-0.1,0.2-0.4,0.2-0.5,0.1c-0.3-1-0.5-1.8-1.6-2.1c-0.5-0.1-1.2-0.1-2.1-0.1h-1.6
			c-0.6,0-0.6,0.1-0.6,0.9v4.3c0,0.6,0.1,0.6,0.7,0.6h1.3c0.9,0,1.6-0.1,1.9-0.1c0.3-0.1,0.4-0.2,0.5-0.7l0.2-0.9
			c0.1-0.1,0.5-0.1,0.6,0c0,0.5-0.1,1.4-0.1,2.2c0,0.8,0.1,1.6,0.1,2.1c-0.1,0.2-0.5,0.2-0.6,0l-0.2-0.8c-0.1-0.4-0.3-0.7-0.7-0.8
			c-0.3-0.1-0.8-0.1-1.7-0.1h-1.3c-0.6,0-0.7,0-0.7,0.6v3.1c0,1.2,0.1,1.9,0.4,2.3c0.3,0.3,0.7,0.5,2.6,0.5c1.7,0,2.3-0.1,2.8-0.3
			c0.4-0.2,1-1,1.5-2.1c0.2-0.1,0.5-0.1,0.5,0.2c-0.2,0.8-0.7,2.4-1,3.1c-2-0.1-3.9-0.1-5.9-0.1h-2c-1,0-1.7,0-3,0.1
			c-0.1-0.1-0.2-0.4-0.1-0.5l0.7-0.1c1.3-0.1,1.4-0.4,1.4-2.8L89.5,101.1L89.5,101.1z"/>
	</g>
	<g>
		<path id="path3333" d="M112.1,105.1c-1.1,0-1.1,0.1-1.1,0.7v3.1c0,2.3,0.1,2.6,1.3,2.8l0.6,0.1c0.1,0.1,0.1,0.5-0.1,0.5
			c-1.2-0.1-1.9-0.1-2.8-0.1c-1,0-1.7,0.1-2.5,0.1c-0.2-0.1-0.2-0.4-0.1-0.5l0.4-0.1c1.2-0.2,1.3-0.4,1.3-2.8v-7.9
			c0-2.3-0.2-2.7-1.3-2.8l-0.6-0.1c-0.2-0.1-0.1-0.5,0.1-0.5c1.1,0,1.8,0.1,2.8,0.1c0.8,0,1.6,0,2.5-0.1c0.2,0.1,0.2,0.5,0.1,0.5
			l-0.4,0.1c-1.3,0.2-1.3,0.5-1.3,2.8v2.5c0,0.7,0.1,0.7,1.1,0.7h6.4c1.1,0,1.1,0,1.1-0.7v-2.5c0-2.3-0.1-2.6-1.3-2.8l-0.4-0.1
			c-0.1-0.1-0.1-0.5,0.1-0.5c1,0.1,1.7,0.1,2.6,0.1c0.8,0,1.6,0,2.6-0.1c0.2,0.1,0.2,0.5,0.1,0.5l-0.5,0.1c-1.3,0.2-1.3,0.5-1.3,2.8
			v7.9c0,2.3,0.1,2.6,1.3,2.8l0.5,0.1c0.2,0.1,0.1,0.5-0.1,0.5c-1.1-0.1-1.8-0.1-2.6-0.1c-0.9,0-1.7,0-2.6,0.1
			c-0.2-0.1-0.2-0.4-0.1-0.5l0.4-0.1c1.3-0.2,1.3-0.4,1.3-2.8v-3.1c0-0.6-0.1-0.7-1.1-0.7H112.1z"/>
		<path id="path3337" d="M139,103.2c0-1.4-0.1-3.9-0.4-4.6c-0.2-0.3-0.5-0.4-1.1-0.5l-0.5-0.1c-0.2-0.2-0.1-0.4,0.1-0.5
			c0.8,0.1,1.6,0.1,2.5,0.1c0.9,0,1.5,0,2.3-0.1c0.2,0.1,0.2,0.4,0.1,0.5l-0.5,0.1c-0.5,0.1-1,0.3-1.1,0.5c-0.3,0.7-0.3,3.2-0.3,4.4
			v2.5c0,1.9-0.3,3.9-1.5,5.2c-1,1-2.5,1.6-4.2,1.6c-1.5,0-3-0.3-4.1-1.2c-1.2-1-1.7-2.5-1.7-5.2v-5.2c0-2.3-0.1-2.6-1.3-2.8
			l-0.5-0.1c-0.2-0.1-0.1-0.5,0.1-0.5c1.1,0.1,1.9,0.1,2.7,0.1c0.9,0,1.6,0,2.7-0.1c0.2,0.1,0.2,0.4,0.1,0.5l-0.5,0.1
			c-1.3,0.1-1.3,0.5-1.3,2.8v4.7c0,3.5,1.1,5.9,4.4,5.9c3.2,0,4.4-2.5,4.4-5.8V103.2L139,103.2z"/>
		<path id="path3341" d="M148.6,103.8c0,0.6,0.1,0.6,0.7,0.6h1.5c0.9,0,1.6-0.1,1.9-0.1c0.3-0.1,0.4-0.2,0.5-0.8l0.2-0.9
			c0.1-0.1,0.5-0.1,0.6,0c0,0.5-0.1,1.4-0.1,2.2c0,0.8,0.1,1.6,0.1,2.1c-0.1,0.1-0.4,0.1-0.6,0l-0.2-0.8c-0.1-0.4-0.3-0.7-0.7-0.8
			c-0.3-0.1-0.8-0.1-1.7-0.1h-1.5c-0.6,0-0.7,0-0.7,0.6v3.1c0,2.3,0.1,2.6,1.3,2.8l0.7,0.1c0.2,0.1,0.1,0.5-0.1,0.5
			c-1.3-0.1-2.1-0.1-2.9-0.1c-1,0-1.7,0-2.8,0.1c-0.2-0.1-0.2-0.4-0.1-0.5l0.5-0.1c1.3-0.2,1.3-0.4,1.3-2.8v-7.9
			c0-2.3-0.1-2.6-1.3-2.8l-0.4-0.1c-0.1-0.1-0.1-0.5,0.1-0.5c0.9,0.1,1.6,0.1,2.5,0.1h4c1.4,0,2.7,0,3-0.1c0,1,0,2.1,0.1,2.9
			c-0.1,0.1-0.4,0.2-0.5,0.1c-0.2-1-0.4-1.8-1.5-2.1c-0.5-0.2-1.2-0.2-2.1-0.2h-1.3c-0.6,0-0.6,0.1-0.6,0.9L148.6,103.8L148.6,103.8
			z"/>
		<path id="path3345" d="M161.8,103.8c0,0.6,0.1,0.6,0.7,0.6h1.5c0.9,0,1.6-0.1,1.9-0.1c0.3-0.1,0.4-0.2,0.5-0.8l0.2-0.8
			c0.1-0.1,0.5-0.1,0.6,0c0,0.5-0.1,1.4-0.1,2.2s0.1,1.6,0.1,2.1c-0.1,0.1-0.4,0.1-0.6,0l-0.2-0.8c-0.1-0.4-0.3-0.7-0.7-0.8
			c-0.3-0.1-0.8-0.1-1.7-0.1h-1.5c-0.6,0-0.7,0-0.7,0.6v3.1c0,2.3,0.1,2.6,1.3,2.8l0.7,0.1c0.2,0.1,0.1,0.5-0.1,0.5
			c-1.3-0.1-2.1-0.1-2.9-0.1c-1,0-1.7,0-2.8,0.1c-0.2-0.1-0.2-0.4-0.1-0.5l0.5-0.1c1.3-0.2,1.3-0.4,1.3-2.8v-7.9
			c0-2.3-0.1-2.6-1.3-2.8l-0.4-0.1c-0.1-0.1-0.1-0.5,0.1-0.5c0.9,0.1,1.6,0.1,2.5,0.1h4c1.4,0,2.7,0,3-0.1c0,1,0,2.1,0.1,2.9
			c-0.1,0.1-0.4,0.2-0.5,0.1c-0.2-1-0.4-1.8-1.5-2.1c-0.5-0.2-1.2-0.2-2.1-0.2h-1.3c-0.6,0-0.6,0.1-0.6,0.9L161.8,103.8L161.8,103.8
			z"/>
		<path id="path3349" d="M173.2,101c0-2.3-0.1-2.7-1.3-2.8l-0.5-0.1c-0.2-0.1-0.1-0.5,0.1-0.5c1.1,0.1,1.9,0.1,2.8,0.1
			s1.6,0,2.7-0.1c0.2,0.1,0.2,0.5,0.1,0.5l-0.5,0.1c-1.3,0.1-1.3,0.5-1.3,2.8v7.8c0,2.3,0.1,2.6,1.3,2.8l0.5,0.1
			c0.2,0.1,0.1,0.5-0.1,0.5c-1.1-0.1-1.9-0.1-2.7-0.1c-0.9,0-1.6,0-2.8,0.1c-0.1-0.1-0.2-0.4-0.1-0.5l0.5-0.1
			c1.3-0.2,1.3-0.5,1.3-2.8V101z"/>
		<path id="path3353" d="M194.3,108.4c0,0.6,0,3.3,0.1,3.8c-0.1,0.1-0.2,0.3-0.4,0.3c-0.3-0.4-0.9-1.2-2.8-3.3l-5.1-5.8
			c-0.6-0.7-2.1-2.5-2.5-3h-0.1c-0.1,0.3-0.1,0.7-0.1,1.4v4.8c0,1,0,3.9,0.4,4.6c0.2,0.3,0.6,0.4,1.1,0.4l0.7,0.1
			c0.1,0.2,0.1,0.4-0.1,0.5c-1-0.1-1.7-0.1-2.5-0.1c-0.9,0-1.5,0-2.3,0.1c-0.2-0.1-0.2-0.4-0.1-0.5l0.6-0.1c0.5-0.1,0.8-0.2,1-0.4
			c0.3-0.8,0.3-3.4,0.3-4.5v-6.4c0-0.6,0-1.1-0.5-1.6c-0.3-0.3-0.8-0.5-1.4-0.5l-0.4-0.1c-0.2-0.1-0.2-0.5,0.1-0.5
			c0.9,0.1,2.1,0.1,2.5,0.1c0.4,0,0.7,0,1-0.1c0.4,1.1,3,4,3.8,4.8l2.1,2.4c1.5,1.7,2.6,2.9,3.6,4h0.1c0.1-0.1,0.1-0.5,0.1-0.9v-4.7
			c0-1,0-3.9-0.4-4.6c-0.1-0.2-0.5-0.3-1.4-0.4l-0.4-0.1c-0.2-0.1-0.1-0.5,0.1-0.5c1,0.1,1.7,0.1,2.6,0.1c1,0,1.5,0,2.3-0.1
			c0.2,0.1,0.2,0.4,0.1,0.5l-0.3,0.1c-0.7,0.1-1.2,0.3-1.2,0.5c-0.4,0.8-0.3,3.5-0.3,4.5L194.3,108.4L194.3,108.4z"/>
		<path id="path3357" d="M212,109.9c0,0.9,0.2,1.4,0.5,1.5c0.1,0.1,0.1,0.2,0,0.3c-0.3,0-0.6,0.1-1.1,0.2c-1.2,0.3-2.8,0.6-3.9,0.6
			c-2.6,0-5-0.7-6.7-2.4c-1.3-1.3-2-3.1-2-5c0-1.9,0.6-3.8,2-5.2c1.5-1.5,3.7-2.5,6.9-2.5c1.3,0,2.4,0.3,2.8,0.3
			c0.4,0.1,1.1,0.3,1.4,0.2c0,0.7,0.2,1.9,0.3,3.2c-0.1,0.2-0.5,0.2-0.6,0.1c-0.6-2.4-2.3-3.1-4.5-3.1c-4.2,0-6.1,3-6.1,6.3
			c0,4.2,2.2,7.5,6.6,7.5c1.4,0,2.2-0.3,2.4-0.6c0.1-0.2,0.2-0.5,0.2-1.3V109c0-1.9-0.1-2-1.4-2.1l-1-0.1c-0.2-0.1-0.2-0.5,0-0.5
			c0.6,0.1,1.9,0.1,3.1,0.1c0.8,0,1.6,0,2.3-0.1c0.2,0.1,0.2,0.4,0,0.5l-0.4,0.1c-0.9,0.1-1,0.7-1,1.9L212,109.9L212,109.9z"/>
		<path id="path3361" d="M223.6,108.9c0,2.3,0.1,2.6,1.3,2.8l0.7,0.1c0.1,0.1,0.1,0.5-0.1,0.5c-1.3-0.1-2-0.1-2.9-0.1
			c-0.9,0-1.6,0-3.1,0.1c-0.1-0.1-0.2-0.4,0-0.5l0.8-0.1c1.3-0.1,1.4-0.4,1.4-2.8V99c0-0.7,0-0.7-0.6-0.7H220c-1,0-2.2,0.1-2.7,0.5
			c-0.5,0.5-0.7,1-1,1.5c-0.2,0.2-0.5,0-0.6-0.2c0.4-1,0.7-2.4,0.8-3.3c0.1-0.1,0.4-0.1,0.4,0c0.1,0.7,0.8,0.7,1.9,0.7h8.9
			c1.2,0,1.4-0.1,1.7-0.6c0.1-0.1,0.4,0,0.4,0.1c-0.3,0.9-0.4,2.7-0.3,3.3c-0.1,0.2-0.5,0.2-0.6,0.1c-0.1-0.5-0.2-1.4-0.5-1.6
			c-0.5-0.4-1.3-0.5-2.5-0.5h-1.5c-0.6,0-0.6,0-0.6,0.7V108.9L223.6,108.9z"/>
		<path id="path3365" d="M232.1,105.1c0-4.4,3.3-7.7,7.8-7.7c5.1,0,7.6,3.7,7.6,7.5c0,4.4-3.4,7.7-7.6,7.7
			C235,112.5,232.1,109,232.1,105.1 M245.3,105.5c0-3.6-1.6-7.5-5.8-7.5c-2.3,0-5.2,1.5-5.2,6.4c0,3.2,1.6,7.5,5.9,7.5
			C242.8,111.8,245.3,109.8,245.3,105.5"/>
		<path id="path3369" d="M264.1,108.4c0,0.6,0,3.3,0.1,3.8c-0.1,0.1-0.2,0.3-0.4,0.3c-0.3-0.4-0.9-1.2-2.8-3.3l-5.1-5.8
			c-0.6-0.7-2.1-2.5-2.5-3h-0.1c-0.1,0.3-0.1,0.7-0.1,1.4v4.8c0,1,0,3.9,0.4,4.6c0.2,0.3,0.6,0.4,1.1,0.4l0.7,0.1
			c0.1,0.2,0.1,0.4-0.1,0.5c-1-0.1-1.7-0.1-2.5-0.1c-0.9,0-1.5,0-2.3,0.1c-0.2-0.1-0.2-0.4-0.1-0.5l0.6-0.1c0.5-0.1,0.8-0.2,1-0.4
			c0.3-0.8,0.3-3.4,0.3-4.5v-6.4c0-0.6,0-1.1-0.5-1.6c-0.3-0.3-0.8-0.5-1.4-0.5l-0.4-0.1c-0.1-0.1-0.1-0.5,0.1-0.5
			c0.9,0.1,2.1,0.1,2.5,0.1c0.4,0,0.7,0,1-0.1c0.4,1.1,3,4,3.8,4.8l2.1,2.4c1.5,1.7,2.6,2.9,3.6,4h0.1c0.1-0.1,0.1-0.5,0.1-0.9v-4.7
			c0-1,0-3.9-0.4-4.6c-0.1-0.2-0.5-0.3-1.4-0.4l-0.4-0.1c-0.2-0.1-0.1-0.5,0.1-0.5c1,0.1,1.7,0.1,2.6,0.1c1,0,1.5,0,2.3-0.1
			c0.2,0.1,0.2,0.4,0.1,0.5l-0.3,0.1c-0.7,0.1-1.2,0.3-1.2,0.5c-0.4,0.8-0.3,3.5-0.3,4.5L264.1,108.4L264.1,108.4z"/>
	</g>
	<g>
		<path id="path3373" d="M279.6,108.9c0,2.3,0.1,2.6,1.4,2.8l0.6,0.1c0.1,0.1,0.1,0.5-0.1,0.5c-1.3-0.1-2-0.1-2.9-0.1
			c-0.9,0-1.7,0-2.7,0.1c-0.2-0.1-0.2-0.4-0.1-0.5l0.5-0.1c1.3-0.2,1.3-0.4,1.3-2.8v-8.1c0-1.9-0.1-2.2-1-2.3l-0.8-0.1
			c-0.2-0.2-0.2-0.5,0.1-0.5c1.2-0.2,2.5-0.2,4.3-0.2s3.2,0.3,4.2,0.9c1,0.6,1.7,1.8,1.7,3.3c0,2-1.3,3-2.2,3.5
			c-1,0.5-2.1,0.6-3,0.6c-0.2-0.1-0.2-0.4,0-0.4c2.4-0.4,3.2-1.8,3.2-3.7c0-2.1-1.3-3.5-3.5-3.5c-1.2,0-1.2,0.1-1.2,0.8L279.6,108.9
			L279.6,108.9z"/>
		<path id="path3377" d="M289.5,105.1c0-4.4,3.3-7.7,7.8-7.7c5.1,0,7.6,3.7,7.6,7.5c0,4.4-3.4,7.7-7.6,7.7
			C292.4,112.5,289.5,109,289.5,105.1 M302.7,105.5c0-3.6-1.6-7.5-5.8-7.5c-2.3,0-5.2,1.5-5.2,6.4c0,3.2,1.6,7.5,5.9,7.5
			C300.2,111.8,302.7,109.8,302.7,105.5"/>
		<path id="path3381" d="M312.1,112.5c-1.9,0-3-0.6-3.4-0.8c-0.3-0.5-0.5-2.1-0.6-3.1c0.1-0.2,0.4-0.2,0.5-0.1
			c0.3,1.1,1.2,3.3,3.8,3.3c1.9,0,2.8-1.2,2.8-2.5c0-1-0.2-2.1-1.8-3.1l-2.1-1.4c-1.1-0.7-2.4-2-2.4-3.8c0-2.1,1.6-3.8,4.5-3.8
			c0.7,0,1.5,0.1,2.1,0.3c0.3,0.1,0.6,0.1,0.7,0.1c0.2,0.5,0.4,1.7,0.4,2.7c-0.1,0.2-0.4,0.2-0.5,0.1c-0.3-1.1-0.9-2.5-3-2.5
			c-2.2,0-2.6,1.4-2.6,2.4c0,1.3,1.1,2.2,1.9,2.7l1.7,1.1c1.4,0.8,2.8,2.1,2.8,4.2C316.8,110.8,315,112.5,312.1,112.5"/>
		<path id="path3385" d="M327.7,108.9c0,2.3,0.1,2.6,1.3,2.8l0.7,0.1c0.1,0.1,0.1,0.5-0.1,0.5c-1.3-0.1-2-0.1-2.9-0.1
			c-0.9,0-1.6,0-3.1,0.1c-0.1-0.1-0.2-0.4,0-0.5l0.8-0.1c1.3-0.1,1.4-0.4,1.4-2.8V99c0-0.7,0-0.7-0.6-0.7h-1.2c-1,0-2.2,0.1-2.7,0.5
			c-0.5,0.5-0.7,1-1,1.5c-0.2,0.2-0.5,0-0.6-0.2c0.4-1,0.7-2.4,0.8-3.3c0.1-0.1,0.4-0.1,0.4,0c0.1,0.7,0.8,0.7,1.9,0.7h8.9
			c1.2,0,1.4-0.1,1.7-0.6c0.1-0.1,0.4,0,0.4,0.1c-0.3,0.9-0.4,2.7-0.3,3.3c-0.1,0.2-0.5,0.2-0.6,0.1c-0.1-0.5-0.2-1.4-0.5-1.6
			c-0.5-0.4-1.3-0.5-2.5-0.5h-1.5c-0.6,0-0.6,0-0.6,0.7V108.9L327.7,108.9z"/>
	</g>
	<g>
		<path id="path3325_1_" d="M20.1,105.4c-1.7,0-1.8,0.1-1.8,1.1v5c0,3.7,0.2,4.2,2.2,4.4l1,0.1c0.2,0.2,0.2,0.8-0.1,0.9
			c-1.9-0.1-3.1-0.1-4.5-0.1c-1.5,0-2.8,0.1-4.1,0.1c-0.2-0.1-0.3-0.7-0.1-0.9l0.6-0.1c2-0.4,2.1-0.7,2.1-4.4V98.8
			c0-3.7-0.3-4.3-2.1-4.5l-0.9-0.1c-0.2-0.2-0.2-0.8,0.1-0.9c1.7,0.1,3,0.1,4.5,0.1c1.4,0,2.6-0.1,4.1-0.1c0.2,0.1,0.3,0.7,0.1,0.9
			l-0.7,0.1c-2.1,0.2-2.1,0.7-2.1,4.5v4.1c0,1.1,0.1,1.1,1.8,1.1h10.2c1.7,0,1.8-0.1,1.8-1.1v-4.1c0-3.7-0.1-4.2-2.2-4.5l-0.7-0.1
			C29,94,29,93.4,29.2,93.3c1.6,0.1,2.9,0.1,4.3,0.1c1.4,0,2.6-0.1,4.2-0.1c0.2,0.1,0.3,0.7,0.1,0.9L37,94.3
			c-2.1,0.2-2.1,0.7-2.1,4.5v12.8c0,3.7,0.1,4.2,2.1,4.4l0.8,0.1c0.2,0.2,0.2,0.8-0.1,0.9c-1.7-0.1-2.9-0.1-4.3-0.1
			c-1.4,0-2.8,0.1-4.3,0.1c-0.2-0.1-0.3-0.7-0.1-0.9l0.7-0.1c2.2-0.4,2.2-0.7,2.2-4.4v-5c0-1.1-0.1-1.1-1.8-1.1L20.1,105.4
			L20.1,105.4z"/>
		<path d="M39.8,87.7c0.8,0,1.5,0.7,1.5,1.5v30.9c0,0.8-0.7,1.5-1.5,1.5H8.9c-0.8,0-1.5-0.7-1.5-1.5V89.3c0-0.8,0.7-1.5,1.5-1.5
			L39.8,87.7 M39.8,84.9H8.9c-2.4,0-4.4,2-4.4,4.4v30.9c0,2.4,2,4.4,4.4,4.4h30.8c2.4,0,4.4-2,4.4-4.4V89.3
			C44.1,86.8,42.1,84.9,39.8,84.9L39.8,84.9z"/>
	</g>
</g>
</svg>
