<?xml version="1.0" encoding="utf-8"?>
<!-- Generator: Adobe Illustrator 18.0.0, SVG Export Plug-In . SVG Version: 6.00 Build 0)  -->
<!DOCTYPE svg PUBLIC "-//W3C//DTD SVG 1.1//EN" "http://www.w3.org/Graphics/SVG/1.1/DTD/svg11.dtd">
<svg version="1.1" id="Layer_1" xmlns="http://www.w3.org/2000/svg" xmlns:xlink="http://www.w3.org/1999/xlink" x="0px" y="0px"
	 viewBox="0 0 338.4 180" enable-background="new 0 0 338.4 180" xml:space="preserve">
<g>
	<g>
		<path d="M299.9,99c0.2-0.3,0.5-0.6,0.7-0.9c2.2-2.8,4.4-5.7,6.6-8.5c0.4-0.5,0.8-0.7,1.5-0.7c3.2,0,6.3,0,9.7,0
			c-0.3,0.4-0.5,0.6-0.7,0.9c-3.2,3.6-6.3,7.1-9.5,10.6c-0.5,0.6-0.5,1-0.1,1.6c3.3,5.1,6.6,10.3,9.9,15.4c0.2,0.3,0.4,0.7,0.7,1.2
			c-3.7,0-7.1,0-10.6,0c-0.3,0-0.6-0.4-0.8-0.7c-1.8-3-3.4-6-5.2-9.1c-0.2-0.3-0.4-0.7-0.6-1.1c-1.2,1-2.1,1.9-2,3.7
			c0.2,2.4,0,4.7,0,7.1c-3,0-5.8,0-8.8,0c0-0.5,0-0.9,0-1.3c0-12.1,0-24.3,0-36.5c0-1.4,0-1.4,1.4-1.4c2,0,4.1,0,6.1,0
			c0.4,0,0.8,0,1.3,0c0,6.6,0,13.1,0,19.6C299.6,98.9,299.8,98.9,299.9,99z"/>
		<path d="M227.5,118.5c-3,0-5.8,0-8.8,0c0-0.5,0-0.9,0-1.3c0-5.5,0-11,0-16.5c0-2.1-0.9-3.4-2.6-3.9c-1.9-0.6-3.8,0.5-4.4,2.4
			c-0.2,0.7-0.2,1.4-0.2,2.1c0,5.3,0,10.6,0,15.9c0,0.4,0,0.9,0,1.4c-3,0-5.8,0-8.8,0c0-0.5,0-0.9,0-1.3c0-12.1,0-24.3,0-36.5
			c0-1.4,0-1.4,1.4-1.4c2,0,4.1,0,6.1,0c0.4,0,0.8,0,1.3,0c0,4,0,7.8,0,12c0.5-0.4,0.8-0.6,1.1-0.8c3.8-3.2,12.3-3,14.4,4.7
			c0.4,1.5,0.6,3.1,0.6,4.6c0,5.9,0,11.8,0,17.6C227.6,117.7,227.5,118,227.5,118.5z"/>
		<path d="M239.4,97.8c-1.9-1.9-3.7-3.7-5.5-5.5c2-2.2,4.5-3.4,7.5-3.7c3.3-0.3,6.7-0.3,9.9,0.8c3.8,1.3,6.1,4.4,6.2,8.4
			c0.1,6.7,0,13.3,0,20c0,0.2,0,0.4-0.1,0.6c-2.8,0-5.6,0-8.5,0c0-0.7-0.1-1.4-0.1-2.3c-0.4,0.3-0.7,0.5-1,0.6
			c-3.5,3-10.7,2.6-13.7-1.7c-1.9-2.9-2.3-6-1-9.2c1.3-3.2,4-4.7,7.3-5c2.4-0.2,4.8-0.2,7.2-0.2c0.9,0,1.1-0.3,1-1.1
			c-0.2-2.1-1.4-3.3-3.5-3.5C242.7,95.8,241.6,96.2,239.4,97.8z M244.3,111.5c3,0,4.4-1.3,4.4-4.1c0-0.5,0-0.9-0.7-0.9
			c-1.6,0-3.2,0-4.8,0c-1.6,0.1-2.3,1.1-2.2,2.6C241.1,110.8,242.1,111.5,244.3,111.5z"/>
		<path d="M197,106.5c-6,0-11.8,0-17.6,0c-0.3,2.4,1.8,4.6,4.4,4.7c2.4,0.1,4.5-0.4,6.3-1.9c0.4-0.4,0.7-0.4,1.1,0
			c1.6,1.6,3.2,3.2,4.8,4.8c-1.9,1.9-3.9,3.4-6.4,4c-3.4,0.9-6.8,0.9-10.2,0c-4.1-1.1-6.8-3.8-8-7.8c-1.3-4.3-1.3-8.6,0-12.8
			c1.8-5.9,6.5-9.2,12.7-9c7.7,0.2,12.6,5.1,13,13.3C197.1,103.3,197,104.9,197,106.5z M179.2,100.5c3,0,5.9,0,8.8,0
			c0-3-1.8-4.7-4.5-4.7C180.9,95.9,179.2,97.6,179.2,100.5z"/>
		<path d="M130.5,110c0,2.9,0,5.7,0,8.5c-8.7,0-17.3,0-26,0c0-13,0-26,0-39.1c0.4,0,0.8,0,1.2,0c2.3,0,4.6,0,6.9,0
			c1.1,0,1.4,0.3,1.4,1.3c0,6.2,0,12.4,0,18.6c0,3.2,0,6.3,0,9.5c0,0.4,0,0.9,0,1.4C119.6,110,125,110,130.5,110z"/>
		<path d="M166.7,96.8c-1.2,0-2.3,0-3.3,0c-1.6,0-1.6,0-1.6,1.7c0,6.2,0,12.4,0,18.6c0,0.5,0,0.9,0,1.5c-2.9,0-5.8,0-8.8,0
			c0-0.4,0-0.8,0-1.3c0-6.3,0-12.5,0-18.8c0-1.6,0-1.6-1.6-1.6c-0.3,0-0.6,0-1,0c0-2.2,0-4.4,0-6.7c0.8,0,1.6,0,2.6,0
			c0-0.8,0-1.6,0-2.3c0-5.7,3.4-9.1,9.1-9.1c1.6,0,3.1,0,4.8,0c0,2.5,0,4.9,0,7.5c-0.8,0-1.6,0-2.4,0c-2,0-2.5,0.5-2.5,2.6
			c0,0.4,0,0.8,0,1.3c1.7,0,3.2,0,4.9,0C166.7,92.2,166.7,94.4,166.7,96.8z"/>
		<path d="M285.8,92.1c-2,2-4,4-6.1,6c-0.3-0.2-0.8-0.6-1.3-0.9c-2.4-1.4-5-0.6-6,2c-1,2.9-1,5.9,0,8.8c0.9,2.6,3.5,3.4,5.9,2.1
			c0.5-0.3,1-0.6,1.4-0.9c2,2,3.9,3.9,6,6c-0.5,0.4-0.9,0.8-1.5,1.3c-5,3.6-13.2,3.1-17.4-1c-2-1.9-3.1-4.4-3.5-7.1
			c-0.7-4.4-0.7-8.8,1.2-13c1.9-4.3,5.5-6.3,10.1-6.7c3.2-0.3,6.3,0.1,9.1,1.9C284.4,91,285.1,91.6,285.8,92.1z"/>
		<path d="M136,90c2.9,0,5.7,0,8.7,0c0,9.5,0,18.9,0,28.4c-2.9,0-5.7,0-8.7,0C136,109,136,99.6,136,90z"/>
		<path d="M140.4,76.4c2.9,0,5.4,2.5,5.4,5.5s-2.5,5.4-5.5,5.5c-3,0-5.6-2.6-5.5-5.5C134.9,78.8,137.5,76.4,140.4,76.4z"/>
	</g>
	<g>
		<polygon points="52.1,94.8 48.3,88.2 52.1,81.6 59.7,81.6 63.5,88.2 59.7,94.8 		"/>
		<polyline fill="none" stroke="#000000" stroke-width="6" stroke-linecap="round" stroke-miterlimit="10" points="71.2,88.2 
			63.5,101.4 48.2,101.4 40.6,88.2 48.2,74.9 63.5,74.9 		"/>
		
			<circle fill="none" stroke="#000000" stroke-width="6" stroke-linecap="round" stroke-miterlimit="10" cx="55.8" cy="88.5" r="27.3"/>
		<polygon points="25.4,88 25.4,118.9 56,118.9 50.9,113.7 36.7,109.1 30.7,93.3 		"/>
	</g>
</g>
</svg>
